%TF.GenerationSoftware,KiCad,Pcbnew,8.0.4*%
%TF.CreationDate,2024-08-07T01:10:06-04:00*%
%TF.ProjectId,heart-sao,68656172-742d-4736-916f-2e6b69636164,rev?*%
%TF.SameCoordinates,Original*%
%TF.FileFunction,Copper,L2,Bot*%
%TF.FilePolarity,Positive*%
%FSLAX46Y46*%
G04 Gerber Fmt 4.6, Leading zero omitted, Abs format (unit mm)*
G04 Created by KiCad (PCBNEW 8.0.4) date 2024-08-07 01:10:06*
%MOMM*%
%LPD*%
G01*
G04 APERTURE LIST*
G04 Aperture macros list*
%AMRoundRect*
0 Rectangle with rounded corners*
0 $1 Rounding radius*
0 $2 $3 $4 $5 $6 $7 $8 $9 X,Y pos of 4 corners*
0 Add a 4 corners polygon primitive as box body*
4,1,4,$2,$3,$4,$5,$6,$7,$8,$9,$2,$3,0*
0 Add four circle primitives for the rounded corners*
1,1,$1+$1,$2,$3*
1,1,$1+$1,$4,$5*
1,1,$1+$1,$6,$7*
1,1,$1+$1,$8,$9*
0 Add four rect primitives between the rounded corners*
20,1,$1+$1,$2,$3,$4,$5,0*
20,1,$1+$1,$4,$5,$6,$7,0*
20,1,$1+$1,$6,$7,$8,$9,0*
20,1,$1+$1,$8,$9,$2,$3,0*%
%AMRotRect*
0 Rectangle, with rotation*
0 The origin of the aperture is its center*
0 $1 length*
0 $2 width*
0 $3 Rotation angle, in degrees counterclockwise*
0 Add horizontal line*
21,1,$1,$2,0,0,$3*%
G04 Aperture macros list end*
%TA.AperFunction,SMDPad,CuDef*%
%ADD10RoundRect,0.250000X-0.707107X-0.176777X-0.176777X-0.707107X0.707107X0.176777X0.176777X0.707107X0*%
%TD*%
%TA.AperFunction,SMDPad,CuDef*%
%ADD11RoundRect,0.250000X-0.689429X-0.229810X-0.229810X-0.689429X0.689429X0.229810X0.229810X0.689429X0*%
%TD*%
%TA.AperFunction,SMDPad,CuDef*%
%ADD12RotRect,1.500000X1.500000X315.000000*%
%TD*%
%TA.AperFunction,SMDPad,CuDef*%
%ADD13RoundRect,0.150000X0.477297X0.689429X-0.689429X-0.477297X-0.477297X-0.689429X0.689429X0.477297X0*%
%TD*%
%TA.AperFunction,ViaPad*%
%ADD14C,0.906400*%
%TD*%
%TA.AperFunction,ViaPad*%
%ADD15C,0.600000*%
%TD*%
%TA.AperFunction,Conductor*%
%ADD16C,0.200000*%
%TD*%
%TA.AperFunction,Conductor*%
%ADD17C,0.254000*%
%TD*%
G04 APERTURE END LIST*
D10*
%TO.P,D9,1,K*%
%TO.N,/CHARLIEPLEX2*%
X139731643Y-125935310D03*
%TO.P,D9,2,A*%
%TO.N,/CHARLIEPLEX0*%
X141711541Y-127915208D03*
%TD*%
%TO.P,D2,1,K*%
%TO.N,/CHARLIEPLEX0*%
X158823543Y-102600810D03*
%TO.P,D2,2,A*%
%TO.N,/CHARLIEPLEX2*%
X160803441Y-104580708D03*
%TD*%
%TO.P,D6,1,K*%
%TO.N,/CHARLIEPLEX1*%
X162005543Y-125581810D03*
%TO.P,D6,2,A*%
%TO.N,/CHARLIEPLEX2*%
X163985441Y-127561708D03*
%TD*%
%TO.P,D17,1,K*%
%TO.N,/CHARLIEPLEX4*%
X131246343Y-84216010D03*
%TO.P,D17,2,A*%
%TO.N,/CHARLIEPLEX0*%
X133226241Y-86195908D03*
%TD*%
D11*
%TO.P,C1,1*%
%TO.N,+3.3V*%
X160538309Y-112093676D03*
%TO.P,C1,2*%
%TO.N,GND*%
X162624275Y-114179642D03*
%TD*%
D10*
%TO.P,D20,1,K*%
%TO.N,/CHARLIEPLEX4*%
X148924043Y-92701310D03*
%TO.P,D20,2,A*%
%TO.N,/CHARLIEPLEX3*%
X150903941Y-94681208D03*
%TD*%
%TO.P,D5,1,K*%
%TO.N,/CHARLIEPLEX1*%
X167308843Y-120278510D03*
%TO.P,D5,2,A*%
%TO.N,/CHARLIEPLEX0*%
X169288741Y-122258408D03*
%TD*%
%TO.P,D19,1,K*%
%TO.N,/CHARLIEPLEX4*%
X145388543Y-84923110D03*
%TO.P,D19,2,A*%
%TO.N,/CHARLIEPLEX2*%
X147368441Y-86903008D03*
%TD*%
D12*
%TO.P,SW1,1,1*%
%TO.N,GND*%
X134074776Y-92701343D03*
%TO.P,SW1,2,2*%
%TO.N,/BUTTON*%
X139590208Y-98216775D03*
%TD*%
D10*
%TO.P,D8,1,K*%
%TO.N,/CHARLIEPLEX1*%
X146802743Y-125935310D03*
%TO.P,D8,2,A*%
%TO.N,/CHARLIEPLEX4*%
X148782641Y-127915208D03*
%TD*%
%TO.P,D13,1,K*%
%TO.N,/CHARLIEPLEX3*%
X125589543Y-111793210D03*
%TO.P,D13,2,A*%
%TO.N,/CHARLIEPLEX0*%
X127569441Y-113773108D03*
%TD*%
%TO.P,D1,1,K*%
%TO.N,/CHARLIEPLEX0*%
X149631143Y-101893710D03*
%TO.P,D1,2,A*%
%TO.N,/CHARLIEPLEX1*%
X151611041Y-103873608D03*
%TD*%
%TO.P,D14,1,K*%
%TO.N,/CHARLIEPLEX3*%
X125589543Y-104722110D03*
%TO.P,D14,2,A*%
%TO.N,/CHARLIEPLEX1*%
X127569441Y-106702008D03*
%TD*%
%TO.P,D7,1,K*%
%TO.N,/CHARLIEPLEX1*%
X154580943Y-125935310D03*
%TO.P,D7,2,A*%
%TO.N,/CHARLIEPLEX3*%
X156560841Y-127915208D03*
%TD*%
%TO.P,D3,1,K*%
%TO.N,/CHARLIEPLEX0*%
X166601743Y-106136310D03*
%TO.P,D3,2,A*%
%TO.N,/CHARLIEPLEX3*%
X168581641Y-108116208D03*
%TD*%
%TO.P,D16,1,K*%
%TO.N,/CHARLIEPLEX3*%
X125943043Y-89519310D03*
%TO.P,D16,2,A*%
%TO.N,/CHARLIEPLEX4*%
X127922941Y-91499208D03*
%TD*%
%TO.P,D18,1,K*%
%TO.N,/CHARLIEPLEX4*%
X137963843Y-82448310D03*
%TO.P,D18,2,A*%
%TO.N,/CHARLIEPLEX1*%
X139943741Y-84428208D03*
%TD*%
%TO.P,D11,1,K*%
%TO.N,/CHARLIEPLEX2*%
X125589543Y-125935310D03*
%TO.P,D11,2,A*%
%TO.N,/CHARLIEPLEX3*%
X127569441Y-127915208D03*
%TD*%
%TO.P,D10,1,K*%
%TO.N,/CHARLIEPLEX2*%
X132660543Y-125935310D03*
%TO.P,D10,2,A*%
%TO.N,/CHARLIEPLEX1*%
X134640441Y-127915208D03*
%TD*%
%TO.P,D4,1,K*%
%TO.N,/CHARLIEPLEX0*%
X169076543Y-113561010D03*
%TO.P,D4,2,A*%
%TO.N,/CHARLIEPLEX4*%
X171056441Y-115540908D03*
%TD*%
D13*
%TO.P,U1,1,VCC*%
%TO.N,+3.3V*%
X156536012Y-112903834D03*
%TO.P,U1,2,PA4*%
%TO.N,/CHARLIEPLEX1*%
X157434038Y-113801859D03*
%TO.P,U1,3,PA5*%
%TO.N,/CHARLIEPLEX2*%
X158332064Y-114699885D03*
%TO.P,U1,4,PA6*%
%TO.N,/BUTTON*%
X159230089Y-115597911D03*
%TO.P,U1,5,PA7*%
%TO.N,unconnected-(U1-PA7-Pad5)*%
X160128115Y-116495936D03*
%TO.P,U1,6,PB3*%
%TO.N,unconnected-(U1-PB3-Pad6)*%
X161026141Y-117393962D03*
%TO.P,U1,7,PB2*%
%TO.N,unconnected-(U1-PB2-Pad7)*%
X161924166Y-118291988D03*
%TO.P,U1,8,PB1*%
%TO.N,/SDA*%
X158423988Y-121792166D03*
%TO.P,U1,9,PB0*%
%TO.N,/SCL*%
X157525962Y-120894141D03*
%TO.P,U1,10,~{RESET}/PA0*%
%TO.N,/UPDI*%
X156627936Y-119996115D03*
%TO.P,U1,11,PA1*%
%TO.N,/CHARLIEPLEX4*%
X155729911Y-119098089D03*
%TO.P,U1,12,PA2*%
%TO.N,/CHARLIEPLEX3*%
X154831885Y-118200064D03*
%TO.P,U1,13,PA3*%
%TO.N,/CHARLIEPLEX0*%
X153933859Y-117302038D03*
%TO.P,U1,14,GND*%
%TO.N,GND*%
X153035834Y-116404012D03*
%TD*%
D10*
%TO.P,D15,1,K*%
%TO.N,/CHARLIEPLEX3*%
X125589543Y-96943910D03*
%TO.P,D15,2,A*%
%TO.N,/CHARLIEPLEX2*%
X127569441Y-98923808D03*
%TD*%
%TO.P,D12,1,K*%
%TO.N,/CHARLIEPLEX2*%
X125589543Y-118864310D03*
%TO.P,D12,2,A*%
%TO.N,/CHARLIEPLEX4*%
X127569441Y-120844208D03*
%TD*%
D14*
%TO.N,GND*%
X140208000Y-119888000D03*
D15*
X134112000Y-90424000D03*
X135128000Y-91440000D03*
D14*
X141268700Y-118827400D03*
%TO.N,/CHARLIEPLEX0*%
X127286592Y-115611559D03*
D15*
X154432000Y-115316000D03*
D14*
X165823892Y-108894059D03*
X140368092Y-128693059D03*
X155924392Y-104651459D03*
X140368092Y-86973759D03*
X148146192Y-100408759D03*
%TO.N,/CHARLIEPLEX1*%
X141782292Y-85559559D03*
D15*
X163068000Y-121412000D03*
D14*
X129761492Y-109728000D03*
X154156592Y-104297859D03*
D15*
X157480000Y-116159500D03*
D14*
%TO.N,/CHARLIEPLEX2*%
X126039628Y-107528764D03*
X126579492Y-124803959D03*
X136832492Y-127985959D03*
X163702592Y-123743259D03*
X133650492Y-124803959D03*
X165823892Y-125864659D03*
X143549992Y-127632359D03*
X147783207Y-123399207D03*
X124968000Y-116840000D03*
X162641892Y-105712059D03*
%TO.N,/CHARLIEPLEX3*%
X143196492Y-85559559D03*
X151328192Y-92984159D03*
X167238092Y-108894059D03*
X127286592Y-88034359D03*
X140368092Y-88387959D03*
X157692192Y-126925259D03*
D15*
X153924000Y-119380000D03*
D14*
%TO.N,/CHARLIEPLEX4*%
X169359392Y-116672259D03*
X150621092Y-127632359D03*
X129407892Y-87376000D03*
X136832492Y-126571759D03*
X129054392Y-119500659D03*
D15*
X156972000Y-118364000D03*
%TO.N,+3.3V*%
X147320000Y-110824659D03*
D14*
X157988000Y-111252000D03*
D15*
X136652000Y-101092000D03*
%TO.N,/SDA*%
X139192000Y-113284000D03*
%TO.N,/UPDI*%
X139192000Y-111252000D03*
%TO.N,/SCL*%
X140716000Y-113792000D03*
%TD*%
D16*
%TO.N,GND*%
X135128000Y-91440000D02*
X134112000Y-90424000D01*
X134074776Y-92493224D02*
X135128000Y-91440000D01*
X134074776Y-92701343D02*
X134074776Y-92493224D01*
D17*
%TO.N,/CHARLIEPLEX0*%
X148146192Y-100408759D02*
X149383657Y-101646225D01*
X159459892Y-103237159D02*
X158576057Y-102353325D01*
X154903897Y-116332000D02*
X153933859Y-117302038D01*
X135771892Y-84145359D02*
X133473729Y-86443397D01*
X167591692Y-112076059D02*
X168829057Y-113313525D01*
X165823892Y-116318659D02*
X165823892Y-116672259D01*
X160166992Y-103237159D02*
X159459892Y-103237159D01*
X166354257Y-105888825D02*
X162995492Y-102530059D01*
X160874192Y-102530059D02*
X160166992Y-103237159D01*
X165823892Y-108894059D02*
X167591692Y-110661859D01*
X158576057Y-102353325D02*
X156277992Y-104651459D01*
X154940000Y-116332000D02*
X154903897Y-116332000D01*
X140368092Y-128693059D02*
X140721592Y-129046559D01*
X162995492Y-102530059D02*
X160874192Y-102530059D01*
X165116792Y-108186959D02*
X165116792Y-107126259D01*
X140368092Y-86973759D02*
X137539592Y-84145359D01*
X165823892Y-108894059D02*
X165116792Y-108186959D01*
X154940000Y-115824000D02*
X154940000Y-116332000D01*
X156277992Y-104651459D02*
X155924392Y-104651459D01*
X127286592Y-115611559D02*
X126932992Y-115258059D01*
X154432000Y-115316000D02*
X154940000Y-115824000D01*
X170420092Y-121621959D02*
X169536229Y-122505897D01*
X126932992Y-115258059D02*
X126932992Y-114904459D01*
X141075192Y-129046559D02*
X141959029Y-128162697D01*
X167591692Y-110661859D02*
X167591692Y-112076059D01*
X165116792Y-107126259D02*
X166354257Y-105888825D01*
X126932992Y-114904459D02*
X127816929Y-114020597D01*
X165823892Y-116672259D02*
X170420092Y-121268459D01*
X168829057Y-113313525D02*
X165823892Y-116318659D01*
X140721592Y-129046559D02*
X141075192Y-129046559D01*
X137539592Y-84145359D02*
X135771892Y-84145359D01*
X170420092Y-121268459D02*
X170420092Y-121621959D01*
%TO.N,/CHARLIEPLEX1*%
X160874192Y-124450359D02*
X161758057Y-125334325D01*
X153449492Y-124803959D02*
X154333457Y-125687825D01*
X137539592Y-124450359D02*
X138953792Y-123036159D01*
X154156592Y-104297859D02*
X153449492Y-105004959D01*
D16*
X156464000Y-115316000D02*
X156972000Y-115824000D01*
D17*
X147439092Y-124803959D02*
X153449492Y-124803959D01*
X152742392Y-105004959D02*
X151858529Y-104121097D01*
X135771892Y-126218159D02*
X137539592Y-124450359D01*
X138953792Y-123036159D02*
X143903592Y-123036159D01*
D16*
X156972000Y-115824000D02*
X157307500Y-116159500D01*
D17*
X154333457Y-125687825D02*
X155570892Y-124450359D01*
X143903592Y-123036159D02*
X146555257Y-125687825D01*
X155570892Y-124450359D02*
X160874192Y-124450359D01*
X129761492Y-109728000D02*
X129761492Y-108894060D01*
X146555257Y-125687825D02*
X147439092Y-124803959D01*
X153449492Y-105004959D02*
X152742392Y-105004959D01*
X129761492Y-116672259D02*
X137539592Y-124450359D01*
X135771892Y-127278859D02*
X135771892Y-126218159D01*
X164763192Y-122329059D02*
X163846133Y-121412000D01*
X141782292Y-85559559D02*
X141075192Y-85559559D01*
X164763192Y-122329059D02*
X167061357Y-120031025D01*
X163846133Y-121412000D02*
X163068000Y-121412000D01*
D16*
X157434038Y-113801859D02*
X156464000Y-114771897D01*
D17*
X129761492Y-108894060D02*
X127816929Y-106949497D01*
X134887929Y-128162697D02*
X135771892Y-127278859D01*
D16*
X156464000Y-114771897D02*
X156464000Y-115316000D01*
X157307500Y-116159500D02*
X157480000Y-116159500D01*
D17*
X141075192Y-85559559D02*
X140191229Y-84675697D01*
X163525792Y-125334259D02*
X164763192Y-124096859D01*
X164763192Y-124096859D02*
X164763192Y-122329059D01*
X129761492Y-109728000D02*
X129761492Y-116672259D01*
X161758057Y-125334325D02*
X163525792Y-125334259D01*
%TO.N,/CHARLIEPLEX2*%
X164084000Y-117856000D02*
X160020000Y-113792000D01*
X132766692Y-125687859D02*
X132413057Y-125687825D01*
X124968000Y-116840000D02*
X124968000Y-118242768D01*
X161839392Y-121363859D02*
X164084000Y-119119251D01*
X133650492Y-124803959D02*
X132766692Y-125687859D01*
X152742492Y-123389759D02*
X159813492Y-123389759D01*
X148853292Y-98287459D02*
X148853292Y-94751959D01*
X161050929Y-104828197D02*
X160166992Y-105712059D01*
X159813492Y-123389759D02*
X161839392Y-121363859D01*
X165823892Y-125864659D02*
X165823892Y-126218159D01*
X127352816Y-99171297D02*
X127816929Y-99171297D01*
X150267592Y-89802159D02*
X147615929Y-87150497D01*
X155570892Y-106419159D02*
X152035292Y-106419159D01*
X139484157Y-125687825D02*
X140368092Y-124803959D01*
X163702592Y-123227159D02*
X163702592Y-123743259D01*
X124968000Y-123192467D02*
X126579492Y-124803959D01*
X161934792Y-105712059D02*
X161050929Y-104828197D01*
X147783207Y-123399207D02*
X152733044Y-123399207D01*
X140721592Y-124803959D02*
X143549992Y-127632359D01*
X165823892Y-126218159D02*
X164232929Y-127809197D01*
X127508000Y-99326481D02*
X127352816Y-99171297D01*
X160020000Y-113792000D02*
X159239949Y-113792000D01*
X124968000Y-118990882D02*
X124968000Y-123192467D01*
X156277992Y-105712059D02*
X155570892Y-106419159D01*
X127508000Y-104648000D02*
X127508000Y-99326481D01*
X125342057Y-118616825D02*
X124968000Y-118990882D01*
X126039628Y-106116372D02*
X127508000Y-104648000D01*
X162641892Y-105712059D02*
X161934792Y-105712059D01*
X161839392Y-121363859D02*
X163702592Y-123227159D01*
X159239949Y-113792000D02*
X158332064Y-114699885D01*
X136832492Y-127985959D02*
X137186092Y-127985959D01*
X137186092Y-127985959D02*
X139484157Y-125687825D01*
X125342057Y-125687825D02*
X125695592Y-125687859D01*
X147085592Y-101469459D02*
X147085592Y-100055259D01*
X150267592Y-93337759D02*
X150267592Y-89802159D01*
X147085592Y-100055259D02*
X148853292Y-98287459D01*
X140368092Y-124803959D02*
X140721592Y-124803959D01*
X152733044Y-123399207D02*
X152742492Y-123389759D01*
X160166992Y-105712059D02*
X156277992Y-105712059D01*
X148853292Y-94751959D02*
X150267592Y-93337759D01*
X125695592Y-125687859D02*
X126579492Y-124803959D01*
X164084000Y-119119251D02*
X164084000Y-117856000D01*
X126039628Y-107528764D02*
X126039628Y-106116372D01*
X124968000Y-118242768D02*
X125342057Y-118616825D01*
X152035292Y-106419159D02*
X147085592Y-101469459D01*
%TO.N,/CHARLIEPLEX3*%
X124968000Y-111919782D02*
X125342057Y-111545725D01*
X153924000Y-119380000D02*
X153924000Y-119107949D01*
X125695557Y-89271825D02*
X126932992Y-88034359D01*
X124968000Y-97070482D02*
X125342057Y-96696425D01*
X157692192Y-127278859D02*
X156808329Y-128162697D01*
X157692192Y-126925259D02*
X157692192Y-127278859D01*
X125984000Y-120449651D02*
X127286592Y-119147059D01*
X124811692Y-90155759D02*
X125695557Y-89271825D01*
X124968000Y-115414267D02*
X124968000Y-111919782D01*
X124968000Y-104100567D02*
X124968000Y-97070482D01*
X125342057Y-96696425D02*
X126225892Y-95812559D01*
X143196492Y-85559559D02*
X140368092Y-88387959D01*
X124968000Y-107636167D02*
X124968000Y-104848682D01*
X126932992Y-88034359D02*
X127286592Y-88034359D01*
X151328192Y-92984159D02*
X152035292Y-93691259D01*
X168298792Y-107833359D02*
X168829129Y-108363697D01*
X125589543Y-104722110D02*
X124968000Y-104100567D01*
X152035292Y-93691259D02*
X152035292Y-94044859D01*
X129054392Y-126925259D02*
X129054392Y-125864659D01*
X127286592Y-117732859D02*
X124968000Y-115414267D01*
X125342057Y-111545725D02*
X126579492Y-110308259D01*
X127286592Y-119147059D02*
X127286592Y-117732859D01*
X167238092Y-108894059D02*
X168298792Y-107833359D01*
X126579492Y-110308259D02*
X126579492Y-109247659D01*
X152035292Y-94044859D02*
X151151429Y-94928697D01*
X126579492Y-109247659D02*
X124968000Y-107636167D01*
X124811692Y-92630559D02*
X124811692Y-90155759D01*
X127816929Y-128162697D02*
X129054392Y-126925259D01*
X125094572Y-104722110D02*
X125589543Y-104722110D01*
X126225892Y-94044859D02*
X124811692Y-92630559D01*
X125984000Y-122794267D02*
X125984000Y-120449651D01*
X129054392Y-125864659D02*
X125984000Y-122794267D01*
X126225892Y-95812559D02*
X126225892Y-94044859D01*
X124968000Y-104848682D02*
X125094572Y-104722110D01*
X153924000Y-119107949D02*
X154831885Y-118200064D01*
%TO.N,/CHARLIEPLEX4*%
X130998857Y-83968525D02*
X132766692Y-82200759D01*
X149030129Y-128162697D02*
X149913992Y-127278859D01*
X127816929Y-121091697D02*
X129054392Y-119854259D01*
X156972000Y-118364000D02*
X156464000Y-118364000D01*
X144257092Y-85559559D02*
X144257092Y-88034359D01*
X142135792Y-124096859D02*
X146562933Y-128524000D01*
X140014492Y-82377559D02*
X142842892Y-82377559D01*
X137716357Y-82200825D02*
X138600292Y-83084659D01*
X129407892Y-87376000D02*
X129407892Y-85559559D01*
X132766692Y-82200759D02*
X137716357Y-82200825D01*
X146562933Y-128524000D02*
X148668826Y-128524000D01*
X144257092Y-88034359D02*
X148676557Y-92453825D01*
D16*
X129407892Y-90014257D02*
X129407892Y-87376000D01*
D17*
X169359392Y-116672259D02*
X170420092Y-116672259D01*
X136832492Y-126571759D02*
X139307392Y-124096859D01*
X139307392Y-83084659D02*
X140014492Y-82377559D01*
X129407892Y-85559559D02*
X130998857Y-83968525D01*
X170420092Y-116672259D02*
X171303929Y-115788397D01*
X149913992Y-127278859D02*
X150267592Y-127278859D01*
X145141057Y-84675625D02*
X144257092Y-85559559D01*
X148668826Y-128524000D02*
X149030129Y-128162697D01*
X142842892Y-82377559D02*
X145141057Y-84675625D01*
X129054392Y-119854259D02*
X129054392Y-119500659D01*
X139307392Y-124096859D02*
X142135792Y-124096859D01*
X138600292Y-83084659D02*
X139307392Y-83084659D01*
D16*
X127922941Y-91499208D02*
X129407892Y-90014257D01*
D17*
X150267592Y-127278859D02*
X150621092Y-127632359D01*
X156464000Y-118364000D02*
X155729911Y-119098089D01*
%TO.N,/BUTTON*%
X153924000Y-113792000D02*
X156972000Y-116840000D01*
X156972000Y-116840000D02*
X157988000Y-116840000D01*
X153924000Y-112550568D02*
X153924000Y-113792000D01*
X157988000Y-116840000D02*
X159230089Y-115597911D01*
X139590210Y-98216778D02*
X153924000Y-112550568D01*
%TO.N,+3.3V*%
X157988000Y-111252000D02*
X159696632Y-111252000D01*
D16*
X157988000Y-111451846D02*
X157988000Y-111252000D01*
D17*
X159696632Y-111252000D02*
X160591345Y-112146713D01*
D16*
X147320000Y-110824659D02*
X137587341Y-101092000D01*
X137587341Y-101092000D02*
X136652000Y-101092000D01*
X156536012Y-112903834D02*
X157988000Y-111451846D01*
%TO.N,/SDA*%
X148336000Y-122428000D02*
X139192000Y-113284000D01*
X157788154Y-122428000D02*
X148336000Y-122428000D01*
X158423988Y-121792166D02*
X157788154Y-122428000D01*
%TO.N,/UPDI*%
X155720051Y-120904000D02*
X154432000Y-120904000D01*
X148844000Y-120904000D02*
X139192000Y-111252000D01*
X154432000Y-120904000D02*
X148844000Y-120904000D01*
X156627936Y-119996115D02*
X155720051Y-120904000D01*
%TO.N,/SCL*%
X148557570Y-121633570D02*
X140716000Y-113792000D01*
X156786533Y-121633570D02*
X148557570Y-121633570D01*
X157525962Y-120894141D02*
X156786533Y-121633570D01*
%TD*%
%TA.AperFunction,Conductor*%
%TO.N,GND*%
G36*
X138455693Y-80466585D02*
G01*
X138460727Y-80466761D01*
X139220432Y-80512805D01*
X139225461Y-80513237D01*
X139981844Y-80597699D01*
X139986866Y-80598389D01*
X140737977Y-80721047D01*
X140742977Y-80721995D01*
X141486896Y-80882537D01*
X141491835Y-80883735D01*
X141679822Y-80934392D01*
X142226663Y-81081749D01*
X142231551Y-81083199D01*
X142955424Y-81318184D01*
X142960197Y-81319868D01*
X143671281Y-81591229D01*
X143675947Y-81593148D01*
X144247805Y-81845260D01*
X144372317Y-81900153D01*
X144376927Y-81902326D01*
X145056883Y-82244222D01*
X145061342Y-82246608D01*
X145723100Y-82622500D01*
X145727460Y-82625125D01*
X145952799Y-82768686D01*
X146369298Y-83034033D01*
X146373526Y-83036879D01*
X146993857Y-83477789D01*
X146997905Y-83480822D01*
X147522425Y-83895171D01*
X147595119Y-83952596D01*
X147599032Y-83955852D01*
X148133275Y-84423719D01*
X148171559Y-84457246D01*
X148175301Y-84460695D01*
X148721721Y-84990466D01*
X148725270Y-84994087D01*
X149167616Y-85468726D01*
X149244123Y-85550818D01*
X149247498Y-85554628D01*
X149375599Y-85706861D01*
X149737512Y-86136953D01*
X149740694Y-86140935D01*
X150200571Y-86747317D01*
X150203547Y-86751455D01*
X150632113Y-87380338D01*
X150634876Y-87384621D01*
X150829023Y-87703058D01*
X151031010Y-88034355D01*
X151031054Y-88034426D01*
X151033592Y-88038837D01*
X151253032Y-88443553D01*
X151396345Y-88707868D01*
X151398660Y-88712409D01*
X151727056Y-89398946D01*
X151729138Y-89403598D01*
X152022341Y-90105887D01*
X152024185Y-90110639D01*
X152281441Y-90826876D01*
X152283042Y-90831715D01*
X152503691Y-91560064D01*
X152505045Y-91564978D01*
X152688521Y-92303576D01*
X152689624Y-92308552D01*
X152835458Y-93055501D01*
X152836307Y-93060527D01*
X152944116Y-93813877D01*
X152944710Y-93818939D01*
X153014225Y-94576795D01*
X153014562Y-94581881D01*
X153045603Y-95342286D01*
X153045682Y-95347382D01*
X153038170Y-96108380D01*
X153037991Y-96113474D01*
X152991942Y-96873143D01*
X152991504Y-96878221D01*
X152907043Y-97634525D01*
X152906350Y-97639575D01*
X152783683Y-98390687D01*
X152782734Y-98395695D01*
X152622186Y-99139601D01*
X152620985Y-99144554D01*
X152422961Y-99879392D01*
X152421510Y-99884278D01*
X152186529Y-100608115D01*
X152184833Y-100612922D01*
X151913126Y-101324887D01*
X151911973Y-101327775D01*
X151897398Y-101362685D01*
X151897396Y-101362699D01*
X151897276Y-101363303D01*
X151897179Y-101363781D01*
X151897288Y-101403123D01*
X151897288Y-101403679D01*
X151897177Y-101443715D01*
X151897280Y-101444234D01*
X151897394Y-101444820D01*
X151912540Y-101481100D01*
X151912754Y-101481615D01*
X151927984Y-101518675D01*
X151928010Y-101518713D01*
X151928372Y-101519255D01*
X151928608Y-101519610D01*
X151928625Y-101519627D01*
X151928626Y-101519628D01*
X151950692Y-101541571D01*
X151956483Y-101547329D01*
X151956861Y-101547707D01*
X151985120Y-101576125D01*
X151985122Y-101576126D01*
X151985367Y-101576290D01*
X151986066Y-101576760D01*
X151986088Y-101576769D01*
X152022586Y-101591767D01*
X152022842Y-101591873D01*
X152059901Y-101607346D01*
X152059903Y-101607346D01*
X152059908Y-101607348D01*
X152060114Y-101607389D01*
X152060568Y-101607480D01*
X152061024Y-101607571D01*
X152061040Y-101607570D01*
X152061043Y-101607572D01*
X152100811Y-101607460D01*
X152140938Y-101607573D01*
X152140940Y-101607571D01*
X152140942Y-101607572D01*
X152141036Y-101607554D01*
X152141480Y-101607466D01*
X152142064Y-101607351D01*
X152142078Y-101607345D01*
X152142079Y-101607345D01*
X152177088Y-101592728D01*
X152179830Y-101591632D01*
X152891855Y-101319907D01*
X152896582Y-101318239D01*
X153620500Y-101083237D01*
X153625364Y-101081794D01*
X154360203Y-100883773D01*
X154365124Y-100882580D01*
X155109056Y-100722032D01*
X155114043Y-100721087D01*
X155865169Y-100598422D01*
X155870163Y-100597735D01*
X156626556Y-100513269D01*
X156631595Y-100512835D01*
X157391292Y-100466788D01*
X157396323Y-100466612D01*
X158157354Y-100459103D01*
X158162441Y-100459181D01*
X158922855Y-100490227D01*
X158927931Y-100490563D01*
X159685817Y-100560084D01*
X159690817Y-100560671D01*
X160444214Y-100668491D01*
X160449212Y-100669335D01*
X161196169Y-100815173D01*
X161201137Y-100816274D01*
X161939755Y-100999759D01*
X161944639Y-101001104D01*
X162673013Y-101221764D01*
X162677836Y-101223360D01*
X162946692Y-101319928D01*
X163394073Y-101480618D01*
X163398825Y-101482462D01*
X164101111Y-101775667D01*
X164105763Y-101777749D01*
X164278824Y-101860531D01*
X164792309Y-102106152D01*
X164796825Y-102108455D01*
X165465896Y-102471231D01*
X165470268Y-102473747D01*
X166120076Y-102869929D01*
X166124335Y-102872675D01*
X166753241Y-103301260D01*
X166757378Y-103304235D01*
X166961482Y-103459028D01*
X167363757Y-103764113D01*
X167367739Y-103767295D01*
X167427527Y-103817605D01*
X167938788Y-104247821D01*
X167950057Y-104257303D01*
X167953864Y-104260675D01*
X168176813Y-104468456D01*
X168510591Y-104779526D01*
X168514231Y-104783094D01*
X168837431Y-105116452D01*
X169032864Y-105318028D01*
X169043985Y-105329498D01*
X169047435Y-105333242D01*
X169482336Y-105829843D01*
X169548826Y-105905766D01*
X169552085Y-105909683D01*
X169575169Y-105938905D01*
X170023845Y-106506882D01*
X170026902Y-106510961D01*
X170214330Y-106774659D01*
X170467799Y-107131273D01*
X170470628Y-107135475D01*
X170687601Y-107476045D01*
X170879556Y-107777347D01*
X170882184Y-107781713D01*
X171258057Y-108443437D01*
X171260462Y-108447932D01*
X171602347Y-109127867D01*
X171604520Y-109132477D01*
X171835627Y-109656688D01*
X171867065Y-109728000D01*
X171911514Y-109828821D01*
X171913452Y-109833535D01*
X172184798Y-110544576D01*
X172186494Y-110549383D01*
X172421472Y-111273238D01*
X172422922Y-111278124D01*
X172620934Y-112012943D01*
X172622135Y-112017896D01*
X172782675Y-112761801D01*
X172783624Y-112766809D01*
X172906281Y-113517900D01*
X172906975Y-113522950D01*
X172991433Y-114279291D01*
X172991870Y-114284369D01*
X173037911Y-115044017D01*
X173038090Y-115049111D01*
X173045595Y-115810107D01*
X173045516Y-115815203D01*
X173014468Y-116575606D01*
X173014131Y-116580692D01*
X172944610Y-117338545D01*
X172944016Y-117343607D01*
X172836201Y-118096953D01*
X172835352Y-118101979D01*
X172689513Y-118848925D01*
X172688410Y-118853901D01*
X172504929Y-119592494D01*
X172503575Y-119597408D01*
X172282921Y-120325754D01*
X172281320Y-120330593D01*
X172024061Y-121046826D01*
X172022217Y-121051578D01*
X171729010Y-121753863D01*
X171726928Y-121758515D01*
X171398519Y-122445062D01*
X171396203Y-122449603D01*
X171033455Y-123118615D01*
X171030913Y-123123032D01*
X170634746Y-123772812D01*
X170631984Y-123777096D01*
X170203397Y-124406002D01*
X170200420Y-124410139D01*
X169740560Y-125016490D01*
X169737379Y-125020472D01*
X169247367Y-125602789D01*
X169243987Y-125606605D01*
X168725123Y-126163343D01*
X168721555Y-126166982D01*
X168175160Y-126696723D01*
X168171412Y-126700177D01*
X167598880Y-127201570D01*
X167594961Y-127204830D01*
X166997780Y-127676572D01*
X166993702Y-127679629D01*
X166373391Y-128120522D01*
X166369163Y-128123369D01*
X165727309Y-128532282D01*
X165722942Y-128534911D01*
X165061204Y-128910788D01*
X165056710Y-128913192D01*
X164376797Y-129255064D01*
X164372187Y-129257237D01*
X163727599Y-129541410D01*
X163687017Y-129549959D01*
X141341723Y-129549959D01*
X141282592Y-129530746D01*
X141246047Y-129480446D01*
X141246047Y-129418272D01*
X141282592Y-129367972D01*
X141291424Y-129362237D01*
X141309433Y-129351839D01*
X141309438Y-129351836D01*
X141309439Y-129351835D01*
X141380468Y-129280806D01*
X141380468Y-129280804D01*
X141387683Y-129273590D01*
X141387693Y-129273576D01*
X141504667Y-129156600D01*
X141560061Y-129128375D01*
X141561321Y-129128184D01*
X141678360Y-129111356D01*
X141810322Y-129051092D01*
X141857378Y-129013172D01*
X142809503Y-128061045D01*
X142819989Y-128048032D01*
X142872051Y-128014045D01*
X142934148Y-128017149D01*
X142981113Y-128054005D01*
X143016380Y-128105098D01*
X143016381Y-128105099D01*
X143016382Y-128105100D01*
X143016383Y-128105101D01*
X143112392Y-128190157D01*
X143145020Y-128219063D01*
X143297191Y-128298928D01*
X143297192Y-128298928D01*
X143297195Y-128298930D01*
X143464062Y-128340059D01*
X143464066Y-128340059D01*
X143635918Y-128340059D01*
X143635922Y-128340059D01*
X143802789Y-128298930D01*
X143954964Y-128219063D01*
X144083604Y-128105098D01*
X144181232Y-127963659D01*
X144242174Y-127802967D01*
X144257150Y-127679629D01*
X144262890Y-127632362D01*
X144262890Y-127632355D01*
X144242317Y-127462927D01*
X144242174Y-127461751D01*
X144181232Y-127301059D01*
X144177599Y-127295796D01*
X144083604Y-127159620D01*
X144083600Y-127159616D01*
X143954963Y-127045654D01*
X143802791Y-126965789D01*
X143802793Y-126965789D01*
X143635924Y-126924659D01*
X143635922Y-126924659D01*
X143464062Y-126924659D01*
X143453164Y-126927344D01*
X143391154Y-126922839D01*
X143357958Y-126900802D01*
X141107250Y-124650094D01*
X141079024Y-124594696D01*
X141088750Y-124533288D01*
X141132714Y-124489324D01*
X141178385Y-124478359D01*
X141936099Y-124478359D01*
X141995230Y-124497572D01*
X142007234Y-124507824D01*
X146328685Y-128829275D01*
X146328684Y-128829275D01*
X146388250Y-128863665D01*
X146415680Y-128879502D01*
X146415681Y-128879502D01*
X146415683Y-128879503D01*
X146512702Y-128905499D01*
X146512706Y-128905499D01*
X146512708Y-128905500D01*
X148133910Y-128905500D01*
X148193041Y-128924713D01*
X148205045Y-128934965D01*
X148283251Y-129013171D01*
X148283256Y-129013175D01*
X148330304Y-129051091D01*
X148330308Y-129051093D01*
X148462264Y-129111354D01*
X148462265Y-129111354D01*
X148462269Y-129111356D01*
X148605864Y-129132003D01*
X148749460Y-129111356D01*
X148881422Y-129051092D01*
X148928478Y-129013172D01*
X149880603Y-128061045D01*
X149891089Y-128048032D01*
X149943151Y-128014045D01*
X150005248Y-128017149D01*
X150052213Y-128054005D01*
X150087480Y-128105098D01*
X150087481Y-128105099D01*
X150087482Y-128105100D01*
X150087483Y-128105101D01*
X150183492Y-128190157D01*
X150216120Y-128219063D01*
X150368291Y-128298928D01*
X150368292Y-128298928D01*
X150368295Y-128298930D01*
X150535162Y-128340059D01*
X150535166Y-128340059D01*
X150707018Y-128340059D01*
X150707022Y-128340059D01*
X150873889Y-128298930D01*
X151026064Y-128219063D01*
X151154704Y-128105098D01*
X151163755Y-128091985D01*
X155344046Y-128091985D01*
X155364692Y-128235576D01*
X155364694Y-128235584D01*
X155424954Y-128367538D01*
X155424956Y-128367541D01*
X155424957Y-128367543D01*
X155462877Y-128414599D01*
X155462878Y-128414600D01*
X156061451Y-129013171D01*
X156061456Y-129013175D01*
X156108504Y-129051091D01*
X156108508Y-129051093D01*
X156240464Y-129111354D01*
X156240465Y-129111354D01*
X156240469Y-129111356D01*
X156384064Y-129132003D01*
X156527660Y-129111356D01*
X156659622Y-129051092D01*
X156706678Y-129013172D01*
X157658803Y-128061045D01*
X157696725Y-128013989D01*
X157756989Y-127882027D01*
X157773794Y-127765146D01*
X157786903Y-127738484D01*
X162768646Y-127738484D01*
X162789292Y-127882076D01*
X162789294Y-127882084D01*
X162849554Y-128014038D01*
X162849556Y-128014041D01*
X162849557Y-128014043D01*
X162887477Y-128061099D01*
X162887478Y-128061100D01*
X163486051Y-128659671D01*
X163486056Y-128659675D01*
X163533104Y-128697591D01*
X163533108Y-128697593D01*
X163665064Y-128757854D01*
X163665065Y-128757854D01*
X163665069Y-128757856D01*
X163808664Y-128778503D01*
X163952260Y-128757856D01*
X164084222Y-128697592D01*
X164131278Y-128659672D01*
X165083403Y-127707545D01*
X165121325Y-127660489D01*
X165181589Y-127528527D01*
X165198403Y-127411586D01*
X165225836Y-127355792D01*
X165226788Y-127354825D01*
X166021899Y-126559676D01*
X166068963Y-126533133D01*
X166076689Y-126531230D01*
X166228864Y-126451363D01*
X166357504Y-126337398D01*
X166455132Y-126195959D01*
X166516074Y-126035267D01*
X166529822Y-125922043D01*
X166536790Y-125864662D01*
X166536790Y-125864655D01*
X166517780Y-125708103D01*
X166516074Y-125694051D01*
X166455132Y-125533359D01*
X166428974Y-125495463D01*
X166357504Y-125391920D01*
X166357500Y-125391916D01*
X166228863Y-125277954D01*
X166076691Y-125198089D01*
X166076693Y-125198089D01*
X165909824Y-125156959D01*
X165909822Y-125156959D01*
X165737962Y-125156959D01*
X165737959Y-125156959D01*
X165571091Y-125198089D01*
X165418920Y-125277954D01*
X165290283Y-125391916D01*
X165290279Y-125391920D01*
X165192652Y-125533357D01*
X165192652Y-125533358D01*
X165166321Y-125602789D01*
X165132365Y-125692326D01*
X165131710Y-125694052D01*
X165131708Y-125694061D01*
X165110994Y-125864655D01*
X165110994Y-125864662D01*
X165131708Y-126035256D01*
X165131709Y-126035262D01*
X165131710Y-126035267D01*
X165181663Y-126166982D01*
X165192652Y-126195959D01*
X165195479Y-126201345D01*
X165193885Y-126202181D01*
X165209331Y-126253948D01*
X165188692Y-126312597D01*
X165179897Y-126322646D01*
X164832961Y-126669600D01*
X164777564Y-126697828D01*
X164716155Y-126688103D01*
X164690689Y-126669602D01*
X164484830Y-126463744D01*
X164484825Y-126463740D01*
X164437777Y-126425824D01*
X164437773Y-126425822D01*
X164305817Y-126365561D01*
X164305809Y-126365559D01*
X164198525Y-126350133D01*
X164162218Y-126344913D01*
X164162217Y-126344913D01*
X164018620Y-126365560D01*
X164018619Y-126365560D01*
X163886665Y-126425821D01*
X163886661Y-126425823D01*
X163839602Y-126463745D01*
X162887477Y-127415872D01*
X162887473Y-127415877D01*
X162849557Y-127462925D01*
X162849555Y-127462929D01*
X162789293Y-127594886D01*
X162789293Y-127594887D01*
X162768646Y-127738484D01*
X157786903Y-127738484D01*
X157801225Y-127709355D01*
X157802121Y-127708445D01*
X157890325Y-127620244D01*
X157937385Y-127593703D01*
X157944989Y-127591830D01*
X158097164Y-127511963D01*
X158225804Y-127397998D01*
X158323432Y-127256559D01*
X158384374Y-127095867D01*
X158405090Y-126925259D01*
X158405035Y-126924808D01*
X158387370Y-126779322D01*
X158384374Y-126754651D01*
X158323432Y-126593959D01*
X158319348Y-126588043D01*
X158225804Y-126452520D01*
X158225800Y-126452516D01*
X158097163Y-126338554D01*
X157944991Y-126258689D01*
X157944993Y-126258689D01*
X157778124Y-126217559D01*
X157778122Y-126217559D01*
X157606262Y-126217559D01*
X157606259Y-126217559D01*
X157439391Y-126258689D01*
X157287220Y-126338554D01*
X157158583Y-126452516D01*
X157158579Y-126452520D01*
X157060952Y-126593957D01*
X157060949Y-126593963D01*
X157032081Y-126670082D01*
X156993148Y-126718557D01*
X156933158Y-126734890D01*
X156896230Y-126725918D01*
X156881214Y-126719060D01*
X156881209Y-126719059D01*
X156749886Y-126700177D01*
X156737618Y-126698413D01*
X156737617Y-126698413D01*
X156594020Y-126719060D01*
X156594019Y-126719060D01*
X156462065Y-126779321D01*
X156462061Y-126779323D01*
X156415002Y-126817245D01*
X155462877Y-127769372D01*
X155462873Y-127769377D01*
X155424957Y-127816425D01*
X155424955Y-127816429D01*
X155364693Y-127948386D01*
X155364693Y-127948387D01*
X155344046Y-128091985D01*
X151163755Y-128091985D01*
X151252332Y-127963659D01*
X151313274Y-127802967D01*
X151328250Y-127679629D01*
X151333990Y-127632362D01*
X151333990Y-127632355D01*
X151313417Y-127462927D01*
X151313274Y-127461751D01*
X151252332Y-127301059D01*
X151248699Y-127295796D01*
X151154704Y-127159620D01*
X151154700Y-127159616D01*
X151026063Y-127045654D01*
X150873891Y-126965789D01*
X150873893Y-126965789D01*
X150707024Y-126924659D01*
X150707022Y-126924659D01*
X150535162Y-126924659D01*
X150535161Y-126924659D01*
X150491730Y-126935363D01*
X150429720Y-126930858D01*
X150417360Y-126924809D01*
X150414846Y-126923358D01*
X150414839Y-126923355D01*
X150317821Y-126897359D01*
X150317817Y-126897359D01*
X149913997Y-126897359D01*
X149863772Y-126897358D01*
X149863771Y-126897358D01*
X149863769Y-126897358D01*
X149835221Y-126905007D01*
X149818739Y-126909424D01*
X149768225Y-126922959D01*
X149766837Y-126923308D01*
X149766732Y-126923361D01*
X149736316Y-126940922D01*
X149714948Y-126953259D01*
X149682363Y-126972071D01*
X149680307Y-126973177D01*
X149679748Y-126973580D01*
X149679745Y-126973583D01*
X149643022Y-127010305D01*
X149643017Y-127010309D01*
X149630185Y-127023139D01*
X149574786Y-127051362D01*
X149513378Y-127041631D01*
X149487921Y-127023134D01*
X149282030Y-126817244D01*
X149282025Y-126817240D01*
X149234977Y-126779324D01*
X149234973Y-126779322D01*
X149103017Y-126719061D01*
X149103009Y-126719059D01*
X148971686Y-126700177D01*
X148959418Y-126698413D01*
X148959417Y-126698413D01*
X148815820Y-126719060D01*
X148815819Y-126719060D01*
X148683865Y-126779321D01*
X148683861Y-126779323D01*
X148636802Y-126817245D01*
X147684677Y-127769372D01*
X147684673Y-127769377D01*
X147646757Y-127816425D01*
X147646755Y-127816429D01*
X147586493Y-127948386D01*
X147586493Y-127948388D01*
X147570989Y-128056217D01*
X147543556Y-128112012D01*
X147488567Y-128141027D01*
X147471413Y-128142500D01*
X146762626Y-128142500D01*
X146703495Y-128123287D01*
X146691491Y-128113035D01*
X142370038Y-123791582D01*
X142334836Y-123771259D01*
X142334836Y-123771258D01*
X142334834Y-123771258D01*
X142289808Y-123745262D01*
X142283043Y-123741356D01*
X142186021Y-123715359D01*
X142186017Y-123715359D01*
X139257167Y-123715359D01*
X139257162Y-123715359D01*
X139160141Y-123741356D01*
X139160136Y-123741358D01*
X139108349Y-123771258D01*
X139108348Y-123771259D01*
X139073145Y-123791582D01*
X137024524Y-125840202D01*
X136969126Y-125868428D01*
X136929316Y-125866744D01*
X136918422Y-125864059D01*
X136908338Y-125864059D01*
X136849207Y-125844846D01*
X136812662Y-125794546D01*
X136812662Y-125732372D01*
X136837201Y-125692326D01*
X137791830Y-124737643D01*
X137791833Y-124737640D01*
X137844869Y-124684605D01*
X139082350Y-123447124D01*
X139137748Y-123418898D01*
X139153485Y-123417659D01*
X143703899Y-123417659D01*
X143763030Y-123436872D01*
X143775034Y-123447124D01*
X145839946Y-125512036D01*
X145868172Y-125567434D01*
X145858446Y-125628842D01*
X145839946Y-125654305D01*
X145704792Y-125789460D01*
X145704779Y-125789474D01*
X145666859Y-125836528D01*
X145666857Y-125836531D01*
X145606595Y-125968488D01*
X145606595Y-125968489D01*
X145591869Y-126070905D01*
X145585948Y-126112087D01*
X145590283Y-126142238D01*
X145606594Y-126255678D01*
X145606596Y-126255686D01*
X145666856Y-126387640D01*
X145666858Y-126387643D01*
X145666859Y-126387645D01*
X145704779Y-126434701D01*
X145704780Y-126434702D01*
X146303353Y-127033273D01*
X146303358Y-127033277D01*
X146350406Y-127071193D01*
X146350410Y-127071195D01*
X146482366Y-127131456D01*
X146482367Y-127131456D01*
X146482371Y-127131458D01*
X146625966Y-127152105D01*
X146769562Y-127131458D01*
X146901524Y-127071194D01*
X146948580Y-127033274D01*
X147900705Y-126081147D01*
X147938627Y-126034091D01*
X147998891Y-125902129D01*
X148019538Y-125758533D01*
X147998891Y-125614938D01*
X147994233Y-125604739D01*
X147938629Y-125482979D01*
X147938627Y-125482976D01*
X147938627Y-125482975D01*
X147900707Y-125435919D01*
X147821982Y-125357194D01*
X147793756Y-125301796D01*
X147803482Y-125240388D01*
X147847446Y-125196424D01*
X147893117Y-125185459D01*
X153249814Y-125185459D01*
X153308945Y-125204672D01*
X153320945Y-125214920D01*
X153618117Y-125512058D01*
X153646347Y-125567454D01*
X153636624Y-125628863D01*
X153618121Y-125654332D01*
X153482979Y-125789474D01*
X153482975Y-125789479D01*
X153445059Y-125836527D01*
X153445057Y-125836531D01*
X153384795Y-125968488D01*
X153384795Y-125968489D01*
X153370069Y-126070905D01*
X153364148Y-126112087D01*
X153368483Y-126142238D01*
X153384794Y-126255678D01*
X153384796Y-126255686D01*
X153445056Y-126387640D01*
X153445058Y-126387643D01*
X153445059Y-126387645D01*
X153482979Y-126434701D01*
X153482980Y-126434702D01*
X154081553Y-127033273D01*
X154081558Y-127033277D01*
X154128606Y-127071193D01*
X154128610Y-127071195D01*
X154260566Y-127131456D01*
X154260567Y-127131456D01*
X154260571Y-127131458D01*
X154404166Y-127152105D01*
X154547762Y-127131458D01*
X154679724Y-127071194D01*
X154726780Y-127033274D01*
X155678905Y-126081147D01*
X155716827Y-126034091D01*
X155777091Y-125902129D01*
X155797738Y-125758533D01*
X155777091Y-125614938D01*
X155772433Y-125604739D01*
X155716829Y-125482979D01*
X155716827Y-125482976D01*
X155716827Y-125482975D01*
X155678907Y-125435919D01*
X155473018Y-125230031D01*
X155444793Y-125174635D01*
X155454519Y-125113226D01*
X155473018Y-125087763D01*
X155517112Y-125043669D01*
X155699452Y-124861325D01*
X155754850Y-124833098D01*
X155770588Y-124831859D01*
X160674484Y-124831859D01*
X160733615Y-124851072D01*
X160745620Y-124861326D01*
X160856795Y-124972513D01*
X161042776Y-125158515D01*
X161070999Y-125213914D01*
X161061270Y-125275323D01*
X161042772Y-125300781D01*
X160907579Y-125435974D01*
X160907575Y-125435979D01*
X160869659Y-125483027D01*
X160869657Y-125483031D01*
X160809395Y-125614988D01*
X160809395Y-125614989D01*
X160788748Y-125758586D01*
X160809394Y-125902178D01*
X160809396Y-125902186D01*
X160869656Y-126034140D01*
X160869658Y-126034143D01*
X160869659Y-126034145D01*
X160907579Y-126081201D01*
X160907580Y-126081202D01*
X161506153Y-126679773D01*
X161506158Y-126679777D01*
X161553206Y-126717693D01*
X161553210Y-126717695D01*
X161685166Y-126777956D01*
X161685167Y-126777956D01*
X161685171Y-126777958D01*
X161828766Y-126798605D01*
X161972362Y-126777958D01*
X162104324Y-126717694D01*
X162151380Y-126679774D01*
X163085916Y-125745235D01*
X163141312Y-125717011D01*
X163157040Y-125715772D01*
X163522654Y-125715759D01*
X163576017Y-125715759D01*
X163576026Y-125715759D01*
X163576058Y-125715754D01*
X163576622Y-125715598D01*
X163632674Y-125700577D01*
X163669964Y-125690585D01*
X163673180Y-125689833D01*
X163675288Y-125688714D01*
X163678255Y-125686755D01*
X163719845Y-125662741D01*
X163719847Y-125662738D01*
X163753823Y-125643123D01*
X163756745Y-125641704D01*
X163757515Y-125641197D01*
X163760287Y-125639484D01*
X163762739Y-125636836D01*
X163795563Y-125604010D01*
X165068468Y-124331106D01*
X165118694Y-124244112D01*
X165125890Y-124217254D01*
X165144691Y-124147089D01*
X165144692Y-124147082D01*
X165144692Y-122528758D01*
X165163905Y-122469627D01*
X165174154Y-122457625D01*
X166461285Y-121170569D01*
X166516683Y-121142345D01*
X166578091Y-121152073D01*
X166603549Y-121170570D01*
X166683776Y-121250796D01*
X166809453Y-121376473D01*
X166809458Y-121376477D01*
X166856506Y-121414393D01*
X166856510Y-121414395D01*
X166988466Y-121474656D01*
X166988467Y-121474656D01*
X166988471Y-121474658D01*
X167132066Y-121495305D01*
X167275662Y-121474658D01*
X167407624Y-121414394D01*
X167454680Y-121376474D01*
X168406805Y-120424347D01*
X168444727Y-120377291D01*
X168504991Y-120245329D01*
X168520695Y-120136109D01*
X168548127Y-120080317D01*
X168603115Y-120051302D01*
X168664657Y-120060151D01*
X168691405Y-120079294D01*
X169487956Y-120875845D01*
X169516182Y-120931243D01*
X169506456Y-120992651D01*
X169462492Y-121036615D01*
X169431139Y-121046556D01*
X169321920Y-121062260D01*
X169321919Y-121062260D01*
X169189965Y-121122521D01*
X169189961Y-121122523D01*
X169142902Y-121160445D01*
X168190777Y-122112572D01*
X168190773Y-122112577D01*
X168152857Y-122159625D01*
X168152855Y-122159629D01*
X168092593Y-122291586D01*
X168092593Y-122291587D01*
X168076396Y-122404238D01*
X168071946Y-122435185D01*
X168074019Y-122449603D01*
X168092592Y-122578776D01*
X168092594Y-122578784D01*
X168152854Y-122710738D01*
X168152856Y-122710741D01*
X168152857Y-122710743D01*
X168190777Y-122757799D01*
X168190778Y-122757800D01*
X168789351Y-123356371D01*
X168789356Y-123356375D01*
X168836404Y-123394291D01*
X168836408Y-123394293D01*
X168968364Y-123454554D01*
X168968365Y-123454554D01*
X168968369Y-123454556D01*
X169111964Y-123475203D01*
X169255560Y-123454556D01*
X169387522Y-123394292D01*
X169434578Y-123356372D01*
X170386703Y-122404245D01*
X170424625Y-122357189D01*
X170484889Y-122225227D01*
X170501708Y-122108252D01*
X170529141Y-122052459D01*
X170530082Y-122051503D01*
X170690011Y-121891562D01*
X170722176Y-121859397D01*
X170725241Y-121856598D01*
X170725301Y-121856521D01*
X170726851Y-121853641D01*
X170756953Y-121801498D01*
X170772591Y-121774412D01*
X170774553Y-121771439D01*
X170775641Y-121769389D01*
X170776604Y-121766199D01*
X170776755Y-121765748D01*
X170777379Y-121762553D01*
X170789703Y-121716553D01*
X170801427Y-121672798D01*
X170801589Y-121672212D01*
X170801593Y-121672180D01*
X170801592Y-121672171D01*
X170801594Y-121672168D01*
X170801592Y-121621943D01*
X170801592Y-121218234D01*
X170793403Y-121187671D01*
X170775595Y-121121211D01*
X170775593Y-121121208D01*
X170775593Y-121121205D01*
X170725368Y-121034212D01*
X170700867Y-121009711D01*
X170650843Y-120959686D01*
X170650820Y-120959665D01*
X166363411Y-116672255D01*
X168646494Y-116672255D01*
X168646494Y-116672262D01*
X168667208Y-116842856D01*
X168667209Y-116842862D01*
X168667210Y-116842867D01*
X168719495Y-116980731D01*
X168728152Y-117003559D01*
X168728152Y-117003560D01*
X168825779Y-117144997D01*
X168825783Y-117145001D01*
X168890235Y-117202100D01*
X168954420Y-117258963D01*
X169106591Y-117338828D01*
X169106592Y-117338828D01*
X169106595Y-117338830D01*
X169273462Y-117379959D01*
X169273466Y-117379959D01*
X169445318Y-117379959D01*
X169445322Y-117379959D01*
X169612189Y-117338830D01*
X169764364Y-117258963D01*
X169893004Y-117144998D01*
X169925988Y-117097211D01*
X169975390Y-117059462D01*
X170008780Y-117053759D01*
X170369868Y-117053759D01*
X170369872Y-117053760D01*
X170470322Y-117053759D01*
X170531746Y-117037299D01*
X170567346Y-117027760D01*
X170567348Y-117027758D01*
X170567350Y-117027758D01*
X170580802Y-117019990D01*
X170580808Y-117019989D01*
X170580807Y-117019988D01*
X170583902Y-117018201D01*
X170654339Y-116977535D01*
X170725368Y-116906506D01*
X170725368Y-116906504D01*
X170732583Y-116899290D01*
X170732593Y-116899276D01*
X170849567Y-116782300D01*
X170904961Y-116754075D01*
X170906221Y-116753884D01*
X171023260Y-116737056D01*
X171155222Y-116676792D01*
X171202278Y-116638872D01*
X172154403Y-115686745D01*
X172192325Y-115639689D01*
X172252589Y-115507727D01*
X172273236Y-115364131D01*
X172252589Y-115220536D01*
X172249866Y-115214574D01*
X172192327Y-115088577D01*
X172192325Y-115088574D01*
X172192325Y-115088573D01*
X172154405Y-115041517D01*
X171555832Y-114442946D01*
X171545466Y-114434592D01*
X171508777Y-114405024D01*
X171508773Y-114405022D01*
X171376817Y-114344761D01*
X171376809Y-114344759D01*
X171269525Y-114329333D01*
X171233218Y-114324113D01*
X171233217Y-114324113D01*
X171089620Y-114344760D01*
X171089619Y-114344760D01*
X170957665Y-114405021D01*
X170957661Y-114405023D01*
X170910602Y-114442945D01*
X169958477Y-115395072D01*
X169958473Y-115395077D01*
X169920557Y-115442125D01*
X169920555Y-115442129D01*
X169860293Y-115574086D01*
X169860293Y-115574087D01*
X169839646Y-115717684D01*
X169860292Y-115861276D01*
X169860294Y-115861284D01*
X169903052Y-115954912D01*
X169910139Y-116016681D01*
X169879565Y-116070819D01*
X169823009Y-116096646D01*
X169764792Y-116085779D01*
X169612191Y-116005689D01*
X169612193Y-116005689D01*
X169445324Y-115964559D01*
X169445322Y-115964559D01*
X169273462Y-115964559D01*
X169273459Y-115964559D01*
X169106591Y-116005689D01*
X168954420Y-116085554D01*
X168825783Y-116199516D01*
X168825779Y-116199520D01*
X168728152Y-116340957D01*
X168728152Y-116340958D01*
X168704240Y-116404011D01*
X168672273Y-116488303D01*
X168667210Y-116501652D01*
X168667208Y-116501661D01*
X168646494Y-116672255D01*
X166363411Y-116672255D01*
X166257750Y-116566594D01*
X166229524Y-116511196D01*
X166239250Y-116449788D01*
X166257748Y-116424325D01*
X168229003Y-114453090D01*
X168284399Y-114424865D01*
X168345808Y-114434592D01*
X168371271Y-114453092D01*
X168577153Y-114658973D01*
X168577158Y-114658977D01*
X168624206Y-114696893D01*
X168624210Y-114696895D01*
X168756166Y-114757156D01*
X168756167Y-114757156D01*
X168756171Y-114757158D01*
X168899766Y-114777805D01*
X169043362Y-114757158D01*
X169175324Y-114696894D01*
X169222380Y-114658974D01*
X170174505Y-113706847D01*
X170212427Y-113659791D01*
X170272691Y-113527829D01*
X170293338Y-113384233D01*
X170272691Y-113240638D01*
X170271443Y-113237906D01*
X170212429Y-113108679D01*
X170212427Y-113108676D01*
X170212427Y-113108675D01*
X170174507Y-113061619D01*
X169575934Y-112463048D01*
X169575927Y-112463042D01*
X169528879Y-112425126D01*
X169528875Y-112425124D01*
X169396919Y-112364863D01*
X169396911Y-112364861D01*
X169289627Y-112349435D01*
X169253320Y-112344215D01*
X169253319Y-112344215D01*
X169109722Y-112364862D01*
X169109721Y-112364862D01*
X168977767Y-112425123D01*
X168977763Y-112425125D01*
X168930704Y-112463047D01*
X168795556Y-112598195D01*
X168740158Y-112626422D01*
X168678749Y-112616695D01*
X168653283Y-112598192D01*
X168002654Y-111947510D01*
X167974430Y-111892111D01*
X167973192Y-111876378D01*
X167973192Y-110720200D01*
X167973193Y-110720187D01*
X167973193Y-110611634D01*
X167973192Y-110611631D01*
X167969288Y-110597062D01*
X167947194Y-110514606D01*
X167896968Y-110427612D01*
X167242850Y-109773494D01*
X167214624Y-109718096D01*
X167224350Y-109656688D01*
X167268314Y-109612724D01*
X167313985Y-109601759D01*
X167324018Y-109601759D01*
X167324022Y-109601759D01*
X167490889Y-109560630D01*
X167643064Y-109480763D01*
X167771704Y-109366798D01*
X167869332Y-109225359D01*
X167875778Y-109208361D01*
X167914707Y-109159886D01*
X167974697Y-109143549D01*
X168032832Y-109165594D01*
X168040975Y-109172896D01*
X168082251Y-109214171D01*
X168082256Y-109214175D01*
X168129304Y-109252091D01*
X168129308Y-109252093D01*
X168261264Y-109312354D01*
X168261265Y-109312354D01*
X168261269Y-109312356D01*
X168404864Y-109333003D01*
X168548460Y-109312356D01*
X168680422Y-109252092D01*
X168727478Y-109214172D01*
X169679603Y-108262045D01*
X169717525Y-108214989D01*
X169777789Y-108083027D01*
X169798436Y-107939431D01*
X169777789Y-107795836D01*
X169772119Y-107783421D01*
X169717527Y-107663877D01*
X169717525Y-107663874D01*
X169717525Y-107663873D01*
X169679605Y-107616817D01*
X169081032Y-107018246D01*
X169081025Y-107018240D01*
X169033977Y-106980324D01*
X169033973Y-106980322D01*
X168902017Y-106920061D01*
X168902009Y-106920059D01*
X168794725Y-106904633D01*
X168758418Y-106899413D01*
X168758417Y-106899413D01*
X168614820Y-106920060D01*
X168614819Y-106920060D01*
X168482865Y-106980321D01*
X168482861Y-106980323D01*
X168435802Y-107018245D01*
X167483677Y-107970372D01*
X167483673Y-107970377D01*
X167445757Y-108017425D01*
X167445755Y-108017430D01*
X167395466Y-108127549D01*
X167353426Y-108173356D01*
X167303957Y-108186359D01*
X167152159Y-108186359D01*
X166985291Y-108227489D01*
X166833120Y-108307354D01*
X166704483Y-108421316D01*
X166704482Y-108421317D01*
X166613784Y-108552716D01*
X166564382Y-108590465D01*
X166502225Y-108591967D01*
X166451057Y-108556648D01*
X166448200Y-108552716D01*
X166434764Y-108533250D01*
X166357504Y-108421320D01*
X166357501Y-108421317D01*
X166357500Y-108421316D01*
X166228863Y-108307354D01*
X166076691Y-108227489D01*
X166076693Y-108227489D01*
X165909824Y-108186359D01*
X165909822Y-108186359D01*
X165737962Y-108186359D01*
X165727064Y-108189044D01*
X165665054Y-108184539D01*
X165631858Y-108162502D01*
X165527757Y-108058401D01*
X165499531Y-108003003D01*
X165498292Y-107987266D01*
X165498292Y-107325954D01*
X165517505Y-107266823D01*
X165527753Y-107254822D01*
X165754197Y-107028384D01*
X165809595Y-107000159D01*
X165871004Y-107009886D01*
X165896466Y-107028386D01*
X166102353Y-107234273D01*
X166102358Y-107234277D01*
X166149406Y-107272193D01*
X166149410Y-107272195D01*
X166281366Y-107332456D01*
X166281367Y-107332456D01*
X166281371Y-107332458D01*
X166424966Y-107353105D01*
X166568562Y-107332458D01*
X166700524Y-107272194D01*
X166747580Y-107234274D01*
X167699705Y-106282147D01*
X167737627Y-106235091D01*
X167797891Y-106103129D01*
X167818538Y-105959533D01*
X167797891Y-105815938D01*
X167783384Y-105784172D01*
X167737629Y-105683979D01*
X167737627Y-105683976D01*
X167737627Y-105683975D01*
X167699707Y-105636919D01*
X167101134Y-105038348D01*
X167101127Y-105038342D01*
X167054079Y-105000426D01*
X167054075Y-105000424D01*
X166922119Y-104940163D01*
X166922111Y-104940161D01*
X166814827Y-104924735D01*
X166778520Y-104919515D01*
X166778519Y-104919515D01*
X166634922Y-104940162D01*
X166634921Y-104940162D01*
X166502967Y-105000423D01*
X166502963Y-105000425D01*
X166455904Y-105038347D01*
X166320738Y-105173513D01*
X166265340Y-105201740D01*
X166203931Y-105192013D01*
X166178468Y-105173513D01*
X164732732Y-103727777D01*
X163229739Y-102224783D01*
X163229738Y-102224782D01*
X163197330Y-102206072D01*
X163197330Y-102206071D01*
X163197328Y-102206071D01*
X163142747Y-102174558D01*
X163142742Y-102174556D01*
X163045721Y-102148559D01*
X163045717Y-102148559D01*
X160881395Y-102148559D01*
X160867044Y-102148558D01*
X160823994Y-102148555D01*
X160823993Y-102148555D01*
X160823991Y-102148555D01*
X160823970Y-102148558D01*
X160780808Y-102160122D01*
X160726951Y-102174550D01*
X160679224Y-102202104D01*
X160639952Y-102224775D01*
X160597517Y-102267210D01*
X160180834Y-102683834D01*
X160125434Y-102712057D01*
X160064026Y-102702326D01*
X160020066Y-102658359D01*
X160010344Y-102596950D01*
X160018196Y-102570900D01*
X160019691Y-102567629D01*
X160040338Y-102424033D01*
X160019691Y-102280438D01*
X159994274Y-102224782D01*
X159959429Y-102148479D01*
X159959427Y-102148476D01*
X159959427Y-102148475D01*
X159921507Y-102101419D01*
X159322934Y-101502848D01*
X159322927Y-101502842D01*
X159275879Y-101464926D01*
X159275875Y-101464924D01*
X159143919Y-101404663D01*
X159143911Y-101404661D01*
X159036627Y-101389235D01*
X159000320Y-101384015D01*
X159000319Y-101384015D01*
X158856722Y-101404662D01*
X158856721Y-101404662D01*
X158724767Y-101464923D01*
X158724763Y-101464925D01*
X158677704Y-101502847D01*
X157725579Y-102454974D01*
X157725575Y-102454979D01*
X157687659Y-102502027D01*
X157687657Y-102502031D01*
X157627395Y-102633988D01*
X157627395Y-102633989D01*
X157610581Y-102750922D01*
X157583147Y-102806717D01*
X157582141Y-102807738D01*
X156378950Y-104010965D01*
X156323553Y-104039192D01*
X156262144Y-104029467D01*
X156261063Y-104028908D01*
X156177191Y-103984889D01*
X156177193Y-103984889D01*
X156010324Y-103943759D01*
X156010322Y-103943759D01*
X155838462Y-103943759D01*
X155838459Y-103943759D01*
X155671591Y-103984889D01*
X155519420Y-104064754D01*
X155390783Y-104178716D01*
X155390779Y-104178720D01*
X155293152Y-104320157D01*
X155293152Y-104320158D01*
X155293152Y-104320159D01*
X155236908Y-104468465D01*
X155232210Y-104480852D01*
X155232208Y-104480861D01*
X155211494Y-104651455D01*
X155211494Y-104651462D01*
X155232208Y-104822056D01*
X155232209Y-104822062D01*
X155232210Y-104822067D01*
X155262177Y-104901084D01*
X155293152Y-104982759D01*
X155293152Y-104982760D01*
X155390779Y-105124197D01*
X155390783Y-105124201D01*
X155477214Y-105200772D01*
X155519420Y-105238163D01*
X155671591Y-105318028D01*
X155671592Y-105318028D01*
X155671595Y-105318030D01*
X155838462Y-105359159D01*
X155838466Y-105359159D01*
X155848499Y-105359159D01*
X155907630Y-105378372D01*
X155944175Y-105428672D01*
X155944175Y-105490846D01*
X155919634Y-105530894D01*
X155442334Y-106008194D01*
X155386936Y-106036420D01*
X155371199Y-106037659D01*
X152234985Y-106037659D01*
X152175854Y-106018446D01*
X152163850Y-106008194D01*
X151411826Y-105256170D01*
X151383600Y-105200772D01*
X151393326Y-105139364D01*
X151437290Y-105095400D01*
X151468640Y-105085460D01*
X151577860Y-105069756D01*
X151709822Y-105009492D01*
X151756878Y-104971572D01*
X151892044Y-104836404D01*
X151947441Y-104808179D01*
X152008850Y-104817905D01*
X152034314Y-104836405D01*
X152437115Y-105239205D01*
X152437116Y-105239206D01*
X152437115Y-105239206D01*
X152473540Y-105275630D01*
X152508145Y-105310235D01*
X152595138Y-105360460D01*
X152595141Y-105360460D01*
X152595144Y-105360462D01*
X152692162Y-105386458D01*
X152692164Y-105386458D01*
X152692167Y-105386459D01*
X152692169Y-105386459D01*
X153499715Y-105386459D01*
X153499717Y-105386459D01*
X153520990Y-105380759D01*
X153596739Y-105360462D01*
X153596739Y-105360461D01*
X153596746Y-105360460D01*
X153683739Y-105310235D01*
X153754768Y-105239206D01*
X153754768Y-105239205D01*
X153964559Y-105029413D01*
X154019955Y-105001189D01*
X154059768Y-105002873D01*
X154070662Y-105005559D01*
X154070666Y-105005559D01*
X154242518Y-105005559D01*
X154242522Y-105005559D01*
X154409389Y-104964430D01*
X154561564Y-104884563D01*
X154690204Y-104770598D01*
X154787832Y-104629159D01*
X154848774Y-104468467D01*
X154865003Y-104334814D01*
X154869490Y-104297862D01*
X154869490Y-104297855D01*
X154848775Y-104127261D01*
X154848774Y-104127251D01*
X154787832Y-103966559D01*
X154772094Y-103943759D01*
X154690204Y-103825120D01*
X154690200Y-103825116D01*
X154561563Y-103711154D01*
X154409391Y-103631289D01*
X154409393Y-103631289D01*
X154242524Y-103590159D01*
X154242522Y-103590159D01*
X154070662Y-103590159D01*
X154070659Y-103590159D01*
X153903791Y-103631289D01*
X153751620Y-103711154D01*
X153622983Y-103825116D01*
X153622979Y-103825120D01*
X153525352Y-103966557D01*
X153525352Y-103966558D01*
X153518400Y-103984889D01*
X153481831Y-104081317D01*
X153464410Y-104127252D01*
X153464408Y-104127261D01*
X153443694Y-104297855D01*
X153443694Y-104297859D01*
X153446402Y-104320158D01*
X153456562Y-104403836D01*
X153444616Y-104464852D01*
X153427830Y-104487097D01*
X153320934Y-104593994D01*
X153265537Y-104622220D01*
X153249799Y-104623459D01*
X152942084Y-104623459D01*
X152882953Y-104604246D01*
X152870949Y-104593994D01*
X152573836Y-104296881D01*
X152545610Y-104241483D01*
X152555336Y-104180075D01*
X152573836Y-104154611D01*
X152601196Y-104127251D01*
X152709003Y-104019445D01*
X152746925Y-103972389D01*
X152807189Y-103840427D01*
X152827836Y-103696831D01*
X152807189Y-103553236D01*
X152802256Y-103542435D01*
X152746927Y-103421277D01*
X152746925Y-103421274D01*
X152746925Y-103421273D01*
X152709005Y-103374217D01*
X152110432Y-102775646D01*
X152110425Y-102775640D01*
X152063377Y-102737724D01*
X152063373Y-102737722D01*
X151931417Y-102677461D01*
X151931409Y-102677459D01*
X151824125Y-102662033D01*
X151787818Y-102656813D01*
X151787817Y-102656813D01*
X151644220Y-102677460D01*
X151644219Y-102677460D01*
X151512265Y-102737721D01*
X151512261Y-102737723D01*
X151465202Y-102775645D01*
X150513077Y-103727772D01*
X150513073Y-103727777D01*
X150475157Y-103774825D01*
X150475155Y-103774829D01*
X150414893Y-103906786D01*
X150414893Y-103906787D01*
X150399189Y-104016005D01*
X150371756Y-104071800D01*
X150316766Y-104100814D01*
X150255225Y-104091965D01*
X150228478Y-104072822D01*
X149431928Y-103276272D01*
X149403702Y-103220874D01*
X149413428Y-103159466D01*
X149457392Y-103115502D01*
X149488742Y-103105562D01*
X149597962Y-103089858D01*
X149729924Y-103029594D01*
X149776980Y-102991674D01*
X150729105Y-102039547D01*
X150767027Y-101992491D01*
X150827291Y-101860529D01*
X150847938Y-101716933D01*
X150827291Y-101573338D01*
X150815413Y-101547329D01*
X150767029Y-101441379D01*
X150767027Y-101441376D01*
X150767027Y-101441375D01*
X150729107Y-101394319D01*
X150130534Y-100795748D01*
X150130527Y-100795742D01*
X150083479Y-100757826D01*
X150083475Y-100757824D01*
X149951519Y-100697563D01*
X149951511Y-100697561D01*
X149844227Y-100682135D01*
X149807920Y-100676915D01*
X149807919Y-100676915D01*
X149664322Y-100697562D01*
X149664321Y-100697562D01*
X149532367Y-100757823D01*
X149532363Y-100757825D01*
X149485304Y-100795747D01*
X149350138Y-100930913D01*
X149294740Y-100959140D01*
X149233331Y-100949413D01*
X149207868Y-100930913D01*
X148874952Y-100597997D01*
X148846726Y-100542599D01*
X148846221Y-100514739D01*
X148859090Y-100408759D01*
X148838374Y-100238151D01*
X148777432Y-100077459D01*
X148765168Y-100059692D01*
X148679804Y-99936020D01*
X148679800Y-99936016D01*
X148551163Y-99822054D01*
X148398991Y-99742189D01*
X148398993Y-99742189D01*
X148232124Y-99701059D01*
X148232122Y-99701059D01*
X148222138Y-99701059D01*
X148163007Y-99681846D01*
X148126462Y-99631546D01*
X148126462Y-99569372D01*
X148151001Y-99529326D01*
X149105530Y-98574743D01*
X149105533Y-98574740D01*
X149157585Y-98522688D01*
X149158749Y-98521558D01*
X149160057Y-98519127D01*
X149177312Y-98489240D01*
X149207196Y-98437478D01*
X149208889Y-98434753D01*
X149208895Y-98434738D01*
X149209624Y-98431619D01*
X149227731Y-98364035D01*
X149227732Y-98364030D01*
X149234605Y-98338381D01*
X149234787Y-98337723D01*
X149234793Y-98337675D01*
X149234794Y-98337673D01*
X149234792Y-98267003D01*
X149234792Y-94951660D01*
X149254005Y-94892529D01*
X149264252Y-94880530D01*
X149546675Y-94598127D01*
X149602071Y-94569904D01*
X149663479Y-94579632D01*
X149707442Y-94623598D01*
X149717166Y-94685007D01*
X149709316Y-94711052D01*
X149707793Y-94714385D01*
X149707793Y-94714387D01*
X149687146Y-94857984D01*
X149707792Y-95001576D01*
X149707794Y-95001584D01*
X149768054Y-95133538D01*
X149768056Y-95133541D01*
X149768057Y-95133543D01*
X149805977Y-95180599D01*
X149805978Y-95180600D01*
X150404551Y-95779171D01*
X150404556Y-95779175D01*
X150451604Y-95817091D01*
X150451608Y-95817093D01*
X150583564Y-95877354D01*
X150583565Y-95877354D01*
X150583569Y-95877356D01*
X150727164Y-95898003D01*
X150870760Y-95877356D01*
X151002722Y-95817092D01*
X151049778Y-95779172D01*
X152001903Y-94827045D01*
X152039825Y-94779989D01*
X152100089Y-94648027D01*
X152116894Y-94531146D01*
X152144325Y-94475355D01*
X152145214Y-94474453D01*
X152262309Y-94357360D01*
X152262323Y-94357350D01*
X152269537Y-94350135D01*
X152269539Y-94350135D01*
X152340568Y-94279106D01*
X152390793Y-94192113D01*
X152406503Y-94133480D01*
X152416022Y-94097957D01*
X152416746Y-94095547D01*
X152416792Y-94095238D01*
X152416792Y-94044865D01*
X152416793Y-93988479D01*
X152416792Y-93988464D01*
X152416792Y-93641035D01*
X152416791Y-93641029D01*
X152390795Y-93544011D01*
X152390793Y-93544008D01*
X152390793Y-93544005D01*
X152340568Y-93457012D01*
X152330755Y-93447199D01*
X152266043Y-93382486D01*
X152266020Y-93382465D01*
X152056952Y-93173396D01*
X152028726Y-93117998D01*
X152028221Y-93090138D01*
X152041090Y-92984159D01*
X152020374Y-92813551D01*
X151959432Y-92652859D01*
X151947168Y-92635092D01*
X151861804Y-92511420D01*
X151861800Y-92511416D01*
X151733163Y-92397454D01*
X151580991Y-92317589D01*
X151580993Y-92317589D01*
X151414124Y-92276459D01*
X151414122Y-92276459D01*
X151242262Y-92276459D01*
X151242259Y-92276459D01*
X151075391Y-92317589D01*
X150923220Y-92397454D01*
X150816402Y-92492087D01*
X150759401Y-92516917D01*
X150698691Y-92503501D01*
X150657463Y-92456963D01*
X150649092Y-92416787D01*
X150649092Y-89751935D01*
X150649091Y-89751929D01*
X150623095Y-89654911D01*
X150623093Y-89654908D01*
X150623093Y-89654905D01*
X150572868Y-89567912D01*
X150557444Y-89552488D01*
X150501839Y-89496882D01*
X150501839Y-89496883D01*
X148331236Y-87326280D01*
X148303010Y-87270882D01*
X148312736Y-87209474D01*
X148331232Y-87184014D01*
X148466403Y-87048845D01*
X148504325Y-87001789D01*
X148564589Y-86869827D01*
X148585236Y-86726231D01*
X148564589Y-86582636D01*
X148527315Y-86501016D01*
X148504327Y-86450677D01*
X148504325Y-86450674D01*
X148504325Y-86450673D01*
X148466405Y-86403617D01*
X147867832Y-85805046D01*
X147842061Y-85784277D01*
X147820777Y-85767124D01*
X147820773Y-85767122D01*
X147688817Y-85706861D01*
X147688809Y-85706859D01*
X147558411Y-85688110D01*
X147545218Y-85686213D01*
X147545217Y-85686213D01*
X147401620Y-85706860D01*
X147401619Y-85706860D01*
X147269665Y-85767121D01*
X147269661Y-85767123D01*
X147222602Y-85805045D01*
X146270477Y-86757172D01*
X146270473Y-86757177D01*
X146232557Y-86804225D01*
X146232555Y-86804229D01*
X146172293Y-86936186D01*
X146172293Y-86936187D01*
X146151646Y-87079785D01*
X146172292Y-87223376D01*
X146172294Y-87223384D01*
X146232554Y-87355338D01*
X146232556Y-87355341D01*
X146232557Y-87355343D01*
X146262142Y-87392056D01*
X146270478Y-87402400D01*
X146869051Y-88000971D01*
X146869056Y-88000975D01*
X146916104Y-88038891D01*
X146916108Y-88038893D01*
X147048064Y-88099154D01*
X147048065Y-88099154D01*
X147048069Y-88099156D01*
X147191664Y-88119803D01*
X147335260Y-88099156D01*
X147467222Y-88038892D01*
X147514278Y-88000972D01*
X147649444Y-87865804D01*
X147704841Y-87837579D01*
X147766250Y-87847305D01*
X147791714Y-87865805D01*
X149856627Y-89930717D01*
X149884853Y-89986115D01*
X149886092Y-90001852D01*
X149886092Y-91823134D01*
X149866879Y-91882265D01*
X149816579Y-91918810D01*
X149754405Y-91918810D01*
X149714357Y-91894269D01*
X149423430Y-91603344D01*
X149423427Y-91603342D01*
X149376379Y-91565426D01*
X149376375Y-91565424D01*
X149244419Y-91505163D01*
X149244411Y-91505161D01*
X149137127Y-91489735D01*
X149100820Y-91484515D01*
X149100819Y-91484515D01*
X148957222Y-91505162D01*
X148957221Y-91505162D01*
X148825267Y-91565423D01*
X148825263Y-91565425D01*
X148778204Y-91603347D01*
X148643038Y-91738513D01*
X148587640Y-91766740D01*
X148526231Y-91757013D01*
X148500768Y-91738513D01*
X146588002Y-89825747D01*
X144668057Y-87905801D01*
X144639831Y-87850403D01*
X144638592Y-87834666D01*
X144638592Y-86013382D01*
X144657805Y-85954251D01*
X144708105Y-85917706D01*
X144770279Y-85917706D01*
X144810327Y-85942247D01*
X144889153Y-86021073D01*
X144889158Y-86021077D01*
X144936206Y-86058993D01*
X144936210Y-86058995D01*
X145068166Y-86119256D01*
X145068167Y-86119256D01*
X145068171Y-86119258D01*
X145211766Y-86139905D01*
X145355362Y-86119258D01*
X145487324Y-86058994D01*
X145534380Y-86021074D01*
X146486505Y-85068947D01*
X146524427Y-85021891D01*
X146584691Y-84889929D01*
X146605338Y-84746333D01*
X146584691Y-84602738D01*
X146571584Y-84574038D01*
X146524429Y-84470779D01*
X146524427Y-84470776D01*
X146524427Y-84470775D01*
X146486507Y-84423719D01*
X145887934Y-83825148D01*
X145883117Y-83821266D01*
X145840879Y-83787226D01*
X145840875Y-83787224D01*
X145708919Y-83726963D01*
X145708911Y-83726961D01*
X145601627Y-83711535D01*
X145565320Y-83706315D01*
X145565319Y-83706315D01*
X145421722Y-83726962D01*
X145421721Y-83726962D01*
X145289767Y-83787223D01*
X145289763Y-83787225D01*
X145242704Y-83825147D01*
X145107527Y-83960324D01*
X145052129Y-83988551D01*
X144990720Y-83978824D01*
X144965262Y-83960327D01*
X143112130Y-82107274D01*
X143077139Y-82072283D01*
X143077136Y-82072280D01*
X143038429Y-82049934D01*
X143038427Y-82049933D01*
X142990149Y-82022060D01*
X142990141Y-82022055D01*
X142990133Y-82022052D01*
X142933723Y-82006939D01*
X142933723Y-82006938D01*
X142933720Y-82006938D01*
X142893115Y-81996058D01*
X142893109Y-81996058D01*
X142842884Y-81996059D01*
X139964262Y-81996059D01*
X139867244Y-82022055D01*
X139867237Y-82022058D01*
X139780247Y-82072282D01*
X139780241Y-82072286D01*
X139709215Y-82143311D01*
X139709216Y-82143312D01*
X139709214Y-82143314D01*
X139321090Y-82531437D01*
X139265692Y-82559663D01*
X139204283Y-82549937D01*
X139160320Y-82505973D01*
X139150594Y-82444565D01*
X139158448Y-82418508D01*
X139158710Y-82417933D01*
X139159991Y-82415129D01*
X139180638Y-82271533D01*
X139159991Y-82127938D01*
X139151111Y-82108494D01*
X139099729Y-81995979D01*
X139099727Y-81995976D01*
X139099727Y-81995975D01*
X139061807Y-81948919D01*
X138463234Y-81350348D01*
X138463227Y-81350342D01*
X138416179Y-81312426D01*
X138416175Y-81312424D01*
X138284219Y-81252163D01*
X138284211Y-81252161D01*
X138176927Y-81236735D01*
X138140620Y-81231515D01*
X138140619Y-81231515D01*
X137997022Y-81252162D01*
X137997021Y-81252162D01*
X137865067Y-81312423D01*
X137865063Y-81312425D01*
X137818004Y-81350347D01*
X137378497Y-81789854D01*
X137323099Y-81818080D01*
X137307361Y-81819319D01*
X132716478Y-81819258D01*
X132716474Y-81819258D01*
X132716473Y-81819258D01*
X132716472Y-81819258D01*
X132716470Y-81819258D01*
X132716465Y-81819259D01*
X132645446Y-81838288D01*
X132620918Y-81844860D01*
X132619541Y-81845207D01*
X132619438Y-81845258D01*
X132619435Y-81845260D01*
X132532449Y-81895479D01*
X132461419Y-81966508D01*
X132461418Y-81966508D01*
X131453277Y-82974608D01*
X131397879Y-83002834D01*
X131396462Y-83003048D01*
X131279522Y-83019862D01*
X131279521Y-83019862D01*
X131147567Y-83080123D01*
X131147563Y-83080125D01*
X131100504Y-83118047D01*
X130148379Y-84070174D01*
X130148375Y-84070179D01*
X130110459Y-84117227D01*
X130110457Y-84117231D01*
X130050195Y-84249188D01*
X130050195Y-84249189D01*
X130033380Y-84366134D01*
X130005947Y-84421929D01*
X130004940Y-84422949D01*
X129148777Y-85279149D01*
X129148777Y-85279150D01*
X129102617Y-85325310D01*
X129102595Y-85325345D01*
X129087270Y-85351892D01*
X129087269Y-85351894D01*
X129054011Y-85409498D01*
X129052845Y-85411374D01*
X129052389Y-85412306D01*
X129052387Y-85412311D01*
X129046897Y-85432804D01*
X129037272Y-85468727D01*
X129037272Y-85468728D01*
X129026391Y-85509336D01*
X129026392Y-85552695D01*
X129026392Y-86723225D01*
X129007179Y-86782356D01*
X128992502Y-86798525D01*
X128874283Y-86903257D01*
X128874279Y-86903261D01*
X128776652Y-87044698D01*
X128776652Y-87044699D01*
X128775080Y-87048845D01*
X128731592Y-87163516D01*
X128715710Y-87205393D01*
X128715708Y-87205402D01*
X128694994Y-87375996D01*
X128694994Y-87376003D01*
X128715708Y-87546597D01*
X128715709Y-87546603D01*
X128715710Y-87546608D01*
X128773048Y-87697796D01*
X128776652Y-87707300D01*
X128776652Y-87707301D01*
X128874279Y-87848738D01*
X128874283Y-87848742D01*
X129002919Y-87962704D01*
X129007925Y-87966159D01*
X129006564Y-87968130D01*
X129042965Y-88005407D01*
X129053392Y-88050008D01*
X129053392Y-89825747D01*
X129034179Y-89884878D01*
X129023927Y-89896882D01*
X128540071Y-90380737D01*
X128484673Y-90408963D01*
X128423264Y-90399237D01*
X128405815Y-90387935D01*
X128375276Y-90363324D01*
X128375272Y-90363322D01*
X128243317Y-90303061D01*
X128243309Y-90303059D01*
X128136025Y-90287633D01*
X128099718Y-90282413D01*
X128099717Y-90282413D01*
X127956120Y-90303060D01*
X127956119Y-90303060D01*
X127824165Y-90363321D01*
X127824161Y-90363323D01*
X127777102Y-90401245D01*
X126824977Y-91353372D01*
X126824973Y-91353377D01*
X126787057Y-91400425D01*
X126787055Y-91400429D01*
X126726793Y-91532386D01*
X126726793Y-91532387D01*
X126706146Y-91675984D01*
X126726792Y-91819576D01*
X126726794Y-91819584D01*
X126787054Y-91951538D01*
X126787056Y-91951541D01*
X126787057Y-91951543D01*
X126824977Y-91998599D01*
X126824978Y-91998600D01*
X127423550Y-92597170D01*
X127423552Y-92597172D01*
X127470604Y-92635091D01*
X127470608Y-92635093D01*
X127602564Y-92695354D01*
X127602565Y-92695354D01*
X127602569Y-92695356D01*
X127746164Y-92716003D01*
X127848122Y-92701343D01*
X132806935Y-92701343D01*
X132822706Y-92780626D01*
X132856279Y-92830874D01*
X133328920Y-93303515D01*
X133931092Y-92701343D01*
X134218460Y-92701343D01*
X134820632Y-93303515D01*
X135293272Y-92830874D01*
X135326845Y-92780626D01*
X135342616Y-92701343D01*
X135326845Y-92622059D01*
X135293272Y-92571811D01*
X134820632Y-92099171D01*
X134218460Y-92701343D01*
X133931092Y-92701343D01*
X133328920Y-92099171D01*
X132856279Y-92571811D01*
X132822706Y-92622059D01*
X132806935Y-92701343D01*
X127848122Y-92701343D01*
X127889760Y-92695356D01*
X128021722Y-92635092D01*
X128068778Y-92597172D01*
X128710462Y-91955487D01*
X133472604Y-91955487D01*
X134074776Y-92557659D01*
X134676948Y-91955487D01*
X134204307Y-91482846D01*
X134154059Y-91449273D01*
X134074776Y-91433502D01*
X133995492Y-91449273D01*
X133945244Y-91482846D01*
X133472604Y-91955487D01*
X128710462Y-91955487D01*
X129020903Y-91645045D01*
X129058825Y-91597989D01*
X129119089Y-91466027D01*
X129139736Y-91322431D01*
X129119089Y-91178836D01*
X129058825Y-91046873D01*
X129034213Y-91016332D01*
X129012072Y-90958235D01*
X129028307Y-90898218D01*
X129041406Y-90882080D01*
X129691563Y-90231925D01*
X129734439Y-90157660D01*
X129738233Y-90151089D01*
X129762392Y-90060928D01*
X129762392Y-88050008D01*
X129781605Y-87990877D01*
X129808733Y-87967426D01*
X129807859Y-87966159D01*
X129812864Y-87962704D01*
X129922240Y-87865805D01*
X129941504Y-87848739D01*
X130039132Y-87707300D01*
X130100074Y-87546608D01*
X130112089Y-87447655D01*
X130120790Y-87376003D01*
X130120790Y-87375996D01*
X130102258Y-87223376D01*
X130100074Y-87205392D01*
X130039132Y-87044700D01*
X130031343Y-87033416D01*
X129941504Y-86903261D01*
X129941500Y-86903257D01*
X129823282Y-86798525D01*
X129791762Y-86744933D01*
X129789392Y-86723225D01*
X129789392Y-85759243D01*
X129808605Y-85700112D01*
X129818851Y-85688115D01*
X130398826Y-85108115D01*
X130454221Y-85079889D01*
X130515630Y-85089614D01*
X130541092Y-85108113D01*
X130628451Y-85195471D01*
X130746953Y-85313973D01*
X130746958Y-85313977D01*
X130794005Y-85351892D01*
X130794010Y-85351895D01*
X130925966Y-85412156D01*
X130925967Y-85412156D01*
X130925971Y-85412158D01*
X131069566Y-85432805D01*
X131213162Y-85412158D01*
X131345124Y-85351894D01*
X131392180Y-85313974D01*
X132344305Y-84361847D01*
X132382227Y-84314791D01*
X132442491Y-84182829D01*
X132463138Y-84039233D01*
X132442491Y-83895638D01*
X132416715Y-83839196D01*
X132382229Y-83763679D01*
X132382227Y-83763676D01*
X132382227Y-83763675D01*
X132344307Y-83716619D01*
X132138446Y-83510759D01*
X132110221Y-83455363D01*
X132119947Y-83393954D01*
X132138446Y-83368491D01*
X132895243Y-82611723D01*
X132950641Y-82583498D01*
X132966369Y-82582260D01*
X136653729Y-82582310D01*
X136712859Y-82601524D01*
X136749404Y-82651824D01*
X136753303Y-82668592D01*
X136767694Y-82768678D01*
X136767696Y-82768686D01*
X136827956Y-82900640D01*
X136827958Y-82900643D01*
X136827959Y-82900645D01*
X136865879Y-82947701D01*
X136865880Y-82947702D01*
X137464453Y-83546273D01*
X137464458Y-83546277D01*
X137512420Y-83584929D01*
X137546405Y-83636992D01*
X137543298Y-83699089D01*
X137504285Y-83747499D01*
X137449295Y-83763859D01*
X135788644Y-83763859D01*
X135721677Y-83763857D01*
X135721676Y-83763857D01*
X135721662Y-83763857D01*
X135721630Y-83763861D01*
X135720942Y-83764052D01*
X135698792Y-83769988D01*
X135698786Y-83769990D01*
X135624649Y-83789852D01*
X135624646Y-83789854D01*
X135624637Y-83789858D01*
X135570243Y-83821263D01*
X135570238Y-83821266D01*
X135540263Y-83838570D01*
X135539259Y-83839110D01*
X135537651Y-83840078D01*
X135537641Y-83840086D01*
X135482556Y-83895171D01*
X134073801Y-85303849D01*
X134018403Y-85332074D01*
X133956994Y-85322346D01*
X133931535Y-85303848D01*
X133725632Y-85097946D01*
X133725625Y-85097940D01*
X133678577Y-85060024D01*
X133678573Y-85060022D01*
X133546617Y-84999761D01*
X133546609Y-84999759D01*
X133439325Y-84984333D01*
X133403018Y-84979113D01*
X133403017Y-84979113D01*
X133259420Y-84999760D01*
X133259419Y-84999760D01*
X133127465Y-85060021D01*
X133127461Y-85060023D01*
X133080402Y-85097945D01*
X132128277Y-86050072D01*
X132128273Y-86050077D01*
X132090357Y-86097125D01*
X132090355Y-86097129D01*
X132030093Y-86229086D01*
X132030093Y-86229087D01*
X132009446Y-86372684D01*
X132030092Y-86516276D01*
X132030094Y-86516284D01*
X132090354Y-86648238D01*
X132090356Y-86648241D01*
X132090357Y-86648243D01*
X132128277Y-86695299D01*
X132128278Y-86695300D01*
X132726851Y-87293871D01*
X132726856Y-87293875D01*
X132773904Y-87331791D01*
X132773908Y-87331793D01*
X132905864Y-87392054D01*
X132905865Y-87392054D01*
X132905869Y-87392056D01*
X133049464Y-87412703D01*
X133193060Y-87392056D01*
X133325022Y-87331792D01*
X133372078Y-87293872D01*
X134324203Y-86341745D01*
X134362125Y-86294689D01*
X134422389Y-86162727D01*
X134439191Y-86045870D01*
X134466624Y-85990077D01*
X134467634Y-85989052D01*
X134472175Y-85984512D01*
X135900443Y-84556321D01*
X135955841Y-84528097D01*
X135971576Y-84526859D01*
X137339904Y-84526859D01*
X137399035Y-84546072D01*
X137411038Y-84556323D01*
X137487198Y-84632480D01*
X139602108Y-86747317D01*
X139639327Y-86784534D01*
X139667554Y-86839931D01*
X139668060Y-86867795D01*
X139655194Y-86973761D01*
X139655194Y-86973762D01*
X139675908Y-87144356D01*
X139675909Y-87144362D01*
X139675910Y-87144367D01*
X139736852Y-87305059D01*
X139736852Y-87305060D01*
X139834479Y-87446497D01*
X139834483Y-87446501D01*
X139835786Y-87447655D01*
X139963120Y-87560463D01*
X140022794Y-87591782D01*
X140066223Y-87636274D01*
X140075206Y-87697796D01*
X140046312Y-87752849D01*
X140022794Y-87769935D01*
X139963120Y-87801255D01*
X139963119Y-87801256D01*
X139834483Y-87915216D01*
X139834479Y-87915220D01*
X139736852Y-88056657D01*
X139736852Y-88056658D01*
X139720735Y-88099156D01*
X139680608Y-88204965D01*
X139675910Y-88217352D01*
X139675908Y-88217361D01*
X139655194Y-88387955D01*
X139655194Y-88387962D01*
X139675908Y-88558556D01*
X139675909Y-88558562D01*
X139675910Y-88558567D01*
X139729900Y-88700927D01*
X139736852Y-88719259D01*
X139736852Y-88719260D01*
X139834479Y-88860697D01*
X139834480Y-88860698D01*
X139963120Y-88974663D01*
X140115291Y-89054528D01*
X140115292Y-89054528D01*
X140115295Y-89054530D01*
X140282162Y-89095659D01*
X140282166Y-89095659D01*
X140454018Y-89095659D01*
X140454022Y-89095659D01*
X140620889Y-89054530D01*
X140773064Y-88974663D01*
X140901704Y-88860698D01*
X140999332Y-88719259D01*
X141060274Y-88558567D01*
X141080990Y-88387959D01*
X141080439Y-88383425D01*
X141071055Y-88306140D01*
X141068121Y-88281980D01*
X141080065Y-88220966D01*
X141096848Y-88198724D01*
X143004459Y-86291113D01*
X143059855Y-86262889D01*
X143099668Y-86264573D01*
X143110562Y-86267259D01*
X143110566Y-86267259D01*
X143282418Y-86267259D01*
X143282422Y-86267259D01*
X143449289Y-86226130D01*
X143601464Y-86146263D01*
X143708283Y-86051629D01*
X143765283Y-86026800D01*
X143825992Y-86040216D01*
X143867221Y-86086754D01*
X143875592Y-86126930D01*
X143875592Y-88084588D01*
X143901589Y-88181609D01*
X143901591Y-88181614D01*
X143950304Y-88265988D01*
X143951409Y-88268042D01*
X143951815Y-88268605D01*
X147961246Y-92278037D01*
X147989472Y-92333435D01*
X147979746Y-92394843D01*
X147961246Y-92420307D01*
X147826079Y-92555474D01*
X147826075Y-92555479D01*
X147788159Y-92602527D01*
X147788157Y-92602531D01*
X147727895Y-92734488D01*
X147727895Y-92734489D01*
X147707248Y-92878086D01*
X147727894Y-93021678D01*
X147727896Y-93021686D01*
X147788156Y-93153640D01*
X147788158Y-93153643D01*
X147788159Y-93153645D01*
X147809178Y-93179728D01*
X147826080Y-93200702D01*
X148424653Y-93799273D01*
X148424658Y-93799277D01*
X148471706Y-93837193D01*
X148471710Y-93837195D01*
X148603666Y-93897456D01*
X148603667Y-93897456D01*
X148603671Y-93897458D01*
X148747266Y-93918105D01*
X148890862Y-93897458D01*
X148894298Y-93895889D01*
X148897430Y-93895529D01*
X148897766Y-93895431D01*
X148897783Y-93895488D01*
X148956066Y-93888799D01*
X149010206Y-93919370D01*
X149036036Y-93975925D01*
X149023691Y-94036861D01*
X149007225Y-94058532D01*
X148821205Y-94244539D01*
X148622001Y-94443729D01*
X148621962Y-94443765D01*
X148576317Y-94489410D01*
X148548022Y-94517703D01*
X148548016Y-94517710D01*
X148548013Y-94517714D01*
X148514759Y-94575314D01*
X148514757Y-94575318D01*
X148497799Y-94604686D01*
X148497791Y-94604703D01*
X148486686Y-94646148D01*
X148486685Y-94646150D01*
X148471793Y-94701714D01*
X148471792Y-94701732D01*
X148471792Y-94735206D01*
X148471790Y-94809164D01*
X148471792Y-94809193D01*
X148471792Y-98087774D01*
X148452579Y-98146905D01*
X148442329Y-98158907D01*
X146833351Y-99767976D01*
X146780319Y-99821008D01*
X146780311Y-99821018D01*
X146779335Y-99822640D01*
X146778807Y-99823621D01*
X146763755Y-99849693D01*
X146761571Y-99853477D01*
X146746610Y-99879392D01*
X146730095Y-99907998D01*
X146730089Y-99908008D01*
X146730085Y-99908016D01*
X146712301Y-99974398D01*
X146712300Y-99974402D01*
X146704090Y-100005040D01*
X146704092Y-100059693D01*
X146704092Y-101519686D01*
X146719388Y-101576769D01*
X146727641Y-101607571D01*
X146730091Y-101616712D01*
X146730093Y-101616717D01*
X146739047Y-101632225D01*
X146739047Y-101632228D01*
X146739049Y-101632228D01*
X146780315Y-101703705D01*
X151801044Y-106724434D01*
X151801043Y-106724434D01*
X151888036Y-106774659D01*
X151888039Y-106774661D01*
X151888040Y-106774661D01*
X151888042Y-106774662D01*
X151985061Y-106800658D01*
X151985065Y-106800658D01*
X151985067Y-106800659D01*
X151985069Y-106800659D01*
X155621115Y-106800659D01*
X155621117Y-106800659D01*
X155718146Y-106774660D01*
X155805139Y-106724435D01*
X155876168Y-106653406D01*
X155876168Y-106653405D01*
X156406549Y-106123024D01*
X156461947Y-106094798D01*
X156477684Y-106093559D01*
X160156931Y-106093559D01*
X160217201Y-106093562D01*
X160217212Y-106093559D01*
X160217217Y-106093559D01*
X160248425Y-106085196D01*
X160307589Y-106069345D01*
X160310778Y-106068723D01*
X160311231Y-106068571D01*
X160314424Y-106067608D01*
X160316472Y-106066520D01*
X160319436Y-106064563D01*
X160356162Y-106043360D01*
X160356164Y-106043359D01*
X160398688Y-106018810D01*
X160401556Y-106017267D01*
X160401631Y-106017208D01*
X160404430Y-106014143D01*
X160436595Y-105981978D01*
X160596473Y-105822112D01*
X160651870Y-105793889D01*
X160653266Y-105793678D01*
X160770260Y-105776856D01*
X160902222Y-105716592D01*
X160949278Y-105678672D01*
X161084444Y-105543504D01*
X161139841Y-105515279D01*
X161201250Y-105525005D01*
X161226714Y-105543505D01*
X161629515Y-105946305D01*
X161629516Y-105946306D01*
X161629515Y-105946306D01*
X161665188Y-105981978D01*
X161700545Y-106017335D01*
X161787538Y-106067560D01*
X161787541Y-106067560D01*
X161787544Y-106067562D01*
X161884562Y-106093558D01*
X161884564Y-106093558D01*
X161884567Y-106093559D01*
X161992504Y-106093559D01*
X162051635Y-106112772D01*
X162075296Y-106137012D01*
X162108279Y-106184797D01*
X162108283Y-106184801D01*
X162165046Y-106235088D01*
X162236920Y-106298763D01*
X162389091Y-106378628D01*
X162389092Y-106378628D01*
X162389095Y-106378630D01*
X162555962Y-106419759D01*
X162555966Y-106419759D01*
X162727818Y-106419759D01*
X162727822Y-106419759D01*
X162894689Y-106378630D01*
X163046864Y-106298763D01*
X163175504Y-106184798D01*
X163273132Y-106043359D01*
X163334074Y-105882667D01*
X163347945Y-105768435D01*
X163354790Y-105712062D01*
X163354790Y-105712055D01*
X163337070Y-105566122D01*
X163334074Y-105541451D01*
X163273132Y-105380759D01*
X163271484Y-105378372D01*
X163175504Y-105239320D01*
X163175500Y-105239316D01*
X163046863Y-105125354D01*
X162894691Y-105045489D01*
X162894693Y-105045489D01*
X162727824Y-105004359D01*
X162727822Y-105004359D01*
X162555962Y-105004359D01*
X162555959Y-105004359D01*
X162389091Y-105045489D01*
X162236923Y-105125353D01*
X162236921Y-105125354D01*
X162236920Y-105125355D01*
X162122583Y-105226649D01*
X162065582Y-105251478D01*
X162004872Y-105238062D01*
X161984738Y-105222483D01*
X161766236Y-105003981D01*
X161738010Y-104948583D01*
X161747736Y-104887175D01*
X161766236Y-104861711D01*
X161791542Y-104836405D01*
X161901403Y-104726545D01*
X161939325Y-104679489D01*
X161999589Y-104547527D01*
X162020236Y-104403931D01*
X161999589Y-104260336D01*
X161990979Y-104241483D01*
X161939327Y-104128377D01*
X161939325Y-104128374D01*
X161939325Y-104128373D01*
X161901405Y-104081317D01*
X161302832Y-103482746D01*
X161292486Y-103474408D01*
X161255777Y-103444824D01*
X161255773Y-103444822D01*
X161123817Y-103384561D01*
X161123809Y-103384559D01*
X161016525Y-103369133D01*
X160980218Y-103363913D01*
X160980217Y-103363913D01*
X160836620Y-103384560D01*
X160833117Y-103386160D01*
X160829926Y-103386525D01*
X160829718Y-103386587D01*
X160829707Y-103386550D01*
X160771347Y-103393242D01*
X160717212Y-103362664D01*
X160691389Y-103306106D01*
X160703741Y-103245171D01*
X160720199Y-103223513D01*
X161002734Y-102941019D01*
X161058134Y-102912796D01*
X161073864Y-102911559D01*
X162795799Y-102911559D01*
X162854930Y-102930772D01*
X162866934Y-102941024D01*
X165638946Y-105713037D01*
X165667172Y-105768435D01*
X165657446Y-105829843D01*
X165638946Y-105855307D01*
X165503779Y-105990474D01*
X165503775Y-105990479D01*
X165465859Y-106037527D01*
X165465857Y-106037531D01*
X165405595Y-106169488D01*
X165405595Y-106169489D01*
X165388788Y-106286375D01*
X165361354Y-106342170D01*
X165360346Y-106343193D01*
X164876811Y-106826716D01*
X164876809Y-106826718D01*
X164855686Y-106847842D01*
X164855683Y-106847845D01*
X164811518Y-106892009D01*
X164811516Y-106892011D01*
X164811110Y-106892573D01*
X164810010Y-106894619D01*
X164795324Y-106920057D01*
X164795323Y-106920059D01*
X164761293Y-106978999D01*
X164761291Y-106979005D01*
X164735292Y-107076028D01*
X164735291Y-107076032D01*
X164735291Y-107184581D01*
X164735292Y-107184594D01*
X164735292Y-108237188D01*
X164761289Y-108334209D01*
X164761291Y-108334214D01*
X164793244Y-108389557D01*
X164793245Y-108389559D01*
X164811515Y-108421205D01*
X165095130Y-108704820D01*
X165123356Y-108760218D01*
X165123862Y-108788080D01*
X165110994Y-108894061D01*
X165110994Y-108894062D01*
X165131708Y-109064656D01*
X165131709Y-109064662D01*
X165131710Y-109064667D01*
X165192651Y-109225357D01*
X165192652Y-109225359D01*
X165192652Y-109225360D01*
X165290279Y-109366797D01*
X165290283Y-109366801D01*
X165324030Y-109396698D01*
X165418920Y-109480763D01*
X165571091Y-109560628D01*
X165571092Y-109560628D01*
X165571095Y-109560630D01*
X165737962Y-109601759D01*
X165737966Y-109601759D01*
X165909818Y-109601759D01*
X165909822Y-109601759D01*
X165920710Y-109599075D01*
X165982721Y-109603575D01*
X166015925Y-109625615D01*
X167180727Y-110790417D01*
X167208953Y-110845815D01*
X167210192Y-110861552D01*
X167210192Y-112067038D01*
X167210190Y-112126282D01*
X167210194Y-112126315D01*
X167210364Y-112126926D01*
X167221656Y-112169068D01*
X167226321Y-112186480D01*
X167236188Y-112223309D01*
X167236204Y-112223345D01*
X167236505Y-112223858D01*
X167266196Y-112275283D01*
X167284795Y-112307501D01*
X167286413Y-112310303D01*
X167286416Y-112310306D01*
X167335318Y-112359208D01*
X168107199Y-113131152D01*
X168113768Y-113137721D01*
X168141992Y-113193120D01*
X168132263Y-113254528D01*
X168113765Y-113279988D01*
X167978579Y-113415174D01*
X167978575Y-113415179D01*
X167940659Y-113462227D01*
X167940657Y-113462231D01*
X167880395Y-113594188D01*
X167880395Y-113594189D01*
X167863586Y-113711088D01*
X167836152Y-113766883D01*
X167835145Y-113767905D01*
X165592170Y-116010858D01*
X165592169Y-116010859D01*
X165518618Y-116084408D01*
X165518616Y-116084411D01*
X165502210Y-116112828D01*
X165468391Y-116171401D01*
X165442392Y-116268428D01*
X165442391Y-116268433D01*
X165442391Y-116376984D01*
X165442392Y-116376997D01*
X165442392Y-116722488D01*
X165468388Y-116819506D01*
X165468390Y-116819511D01*
X165468391Y-116819513D01*
X165480217Y-116839996D01*
X165487493Y-116852599D01*
X165508397Y-116888807D01*
X165518616Y-116906506D01*
X166637100Y-118024989D01*
X167508058Y-118895947D01*
X167536284Y-118951345D01*
X167526558Y-119012753D01*
X167482594Y-119056717D01*
X167451241Y-119066658D01*
X167342022Y-119082362D01*
X167342021Y-119082362D01*
X167210067Y-119142623D01*
X167210063Y-119142625D01*
X167163004Y-119180547D01*
X166210879Y-120132674D01*
X166210875Y-120132679D01*
X166172959Y-120179727D01*
X166172957Y-120179731D01*
X166112695Y-120311688D01*
X166112695Y-120311689D01*
X166095892Y-120428549D01*
X166068459Y-120484344D01*
X166067449Y-120485368D01*
X164834334Y-121718413D01*
X164778935Y-121746638D01*
X164717527Y-121736910D01*
X164692066Y-121718411D01*
X164448311Y-121474656D01*
X164080380Y-121106724D01*
X164079001Y-121105928D01*
X164073424Y-121102708D01*
X164051489Y-121090044D01*
X164029729Y-121077481D01*
X163993388Y-121056499D01*
X163993383Y-121056497D01*
X163896362Y-121030500D01*
X163896358Y-121030500D01*
X163515834Y-121030500D01*
X163456703Y-121011287D01*
X163454613Y-121009727D01*
X163367636Y-120942986D01*
X163347642Y-120927644D01*
X163212753Y-120871771D01*
X163113010Y-120858640D01*
X163056893Y-120831874D01*
X163027226Y-120777234D01*
X163035341Y-120715592D01*
X163055003Y-120687769D01*
X164389276Y-119353498D01*
X164395801Y-119342196D01*
X164439501Y-119266505D01*
X164458049Y-119197282D01*
X164465499Y-119169480D01*
X164465500Y-119169474D01*
X164465500Y-117805773D01*
X164465214Y-117804706D01*
X164465214Y-117804705D01*
X164439503Y-117708750D01*
X164439501Y-117708745D01*
X164404353Y-117647868D01*
X164389276Y-117621753D01*
X162257922Y-115490399D01*
X162229698Y-115435004D01*
X162239424Y-115373596D01*
X162283388Y-115329632D01*
X162344053Y-115319791D01*
X162394463Y-115327389D01*
X162394469Y-115327389D01*
X162529555Y-115307028D01*
X162529556Y-115307028D01*
X162652641Y-115247754D01*
X162652644Y-115247752D01*
X162676324Y-115228133D01*
X163102703Y-114801754D01*
X162480590Y-114179641D01*
X162767959Y-114179641D01*
X162767959Y-114179642D01*
X163246387Y-114658070D01*
X163672766Y-114231691D01*
X163692385Y-114208011D01*
X163692387Y-114208008D01*
X163751661Y-114084923D01*
X163751661Y-114084922D01*
X163772022Y-113949835D01*
X163772022Y-113949828D01*
X163751662Y-113814742D01*
X163692385Y-113691653D01*
X163672764Y-113667970D01*
X163476197Y-113471403D01*
X162767959Y-114179641D01*
X162480590Y-114179641D01*
X162002162Y-113701213D01*
X161575783Y-114127592D01*
X161556164Y-114151272D01*
X161556162Y-114151275D01*
X161496888Y-114274360D01*
X161496888Y-114274361D01*
X161476528Y-114409448D01*
X161476528Y-114409450D01*
X161484126Y-114459865D01*
X161473939Y-114521199D01*
X161429647Y-114564832D01*
X161368167Y-114574098D01*
X161313516Y-114545993D01*
X160325052Y-113557529D01*
X162145846Y-113557529D01*
X162624274Y-114035957D01*
X163332513Y-113327719D01*
X163135946Y-113131152D01*
X163112263Y-113111531D01*
X162989174Y-113052254D01*
X162854089Y-113031895D01*
X162854081Y-113031895D01*
X162718994Y-113052255D01*
X162718993Y-113052255D01*
X162595908Y-113111529D01*
X162595905Y-113111531D01*
X162572225Y-113131150D01*
X162145846Y-113557529D01*
X160325052Y-113557529D01*
X160254247Y-113486724D01*
X160254244Y-113486722D01*
X160241001Y-113479076D01*
X160199399Y-113432871D01*
X160192901Y-113371037D01*
X160223988Y-113317193D01*
X160280788Y-113291905D01*
X160305618Y-113292378D01*
X160308499Y-113292793D01*
X160452095Y-113272147D01*
X160584057Y-113211882D01*
X160631113Y-113173962D01*
X161618594Y-112186480D01*
X161656515Y-112139424D01*
X161716780Y-112007462D01*
X161737426Y-111863866D01*
X161735360Y-111849500D01*
X161732038Y-111826391D01*
X161716780Y-111720271D01*
X161704979Y-111694431D01*
X161656517Y-111588313D01*
X161656515Y-111588309D01*
X161656515Y-111588308D01*
X161618595Y-111541252D01*
X161090733Y-111013391D01*
X161043677Y-110975470D01*
X161043676Y-110975469D01*
X160911715Y-110915205D01*
X160768119Y-110894559D01*
X160624522Y-110915205D01*
X160492563Y-110975468D01*
X160492562Y-110975469D01*
X160445503Y-111013391D01*
X160292659Y-111166235D01*
X160237261Y-111194461D01*
X160175852Y-111184735D01*
X160150389Y-111166235D01*
X160072086Y-111087932D01*
X159930879Y-110946724D01*
X159843886Y-110896499D01*
X159843879Y-110896496D01*
X159746861Y-110870500D01*
X159746857Y-110870500D01*
X158637388Y-110870500D01*
X158578257Y-110851287D01*
X158554596Y-110827047D01*
X158549650Y-110819882D01*
X158521612Y-110779261D01*
X158521608Y-110779257D01*
X158392971Y-110665295D01*
X158240799Y-110585430D01*
X158240801Y-110585430D01*
X158073932Y-110544300D01*
X158073930Y-110544300D01*
X157902070Y-110544300D01*
X157902067Y-110544300D01*
X157735199Y-110585430D01*
X157583028Y-110665295D01*
X157454391Y-110779257D01*
X157454387Y-110779261D01*
X157356760Y-110920698D01*
X157356760Y-110920699D01*
X157295818Y-111081393D01*
X157295816Y-111081402D01*
X157275102Y-111251996D01*
X157275102Y-111252003D01*
X157295817Y-111422606D01*
X157333268Y-111521357D01*
X157336271Y-111583459D01*
X157310340Y-111628165D01*
X157157841Y-111780664D01*
X157102443Y-111808890D01*
X157085292Y-111808890D01*
X157085292Y-111809905D01*
X157077375Y-111809905D01*
X156949243Y-111809905D01*
X156949241Y-111809905D01*
X156949236Y-111809906D01*
X156827383Y-111849497D01*
X156827379Y-111849500D01*
X156749795Y-111905868D01*
X155538046Y-113117617D01*
X155481678Y-113195201D01*
X155481675Y-113195205D01*
X155442084Y-113317058D01*
X155442083Y-113317067D01*
X155442083Y-113445194D01*
X155442084Y-113445203D01*
X155481675Y-113567056D01*
X155481678Y-113567060D01*
X155538046Y-113644644D01*
X155795201Y-113901799D01*
X155833993Y-113929983D01*
X155869419Y-113955722D01*
X155872785Y-113958167D01*
X155872789Y-113958170D01*
X155994642Y-113997761D01*
X155994644Y-113997761D01*
X155994649Y-113997763D01*
X155994651Y-113997763D01*
X156122779Y-113997763D01*
X156122781Y-113997763D01*
X156129468Y-113995589D01*
X156252175Y-113955722D01*
X156252617Y-113957083D01*
X156305541Y-113948697D01*
X156360941Y-113976920D01*
X156389171Y-114032315D01*
X156380790Y-114085254D01*
X156382150Y-114085696D01*
X156340110Y-114215083D01*
X156340109Y-114215092D01*
X156340109Y-114351139D01*
X156336828Y-114351139D01*
X156329365Y-114398232D01*
X156310868Y-114423688D01*
X156246332Y-114488225D01*
X156180329Y-114554228D01*
X156180328Y-114554230D01*
X156133659Y-114635065D01*
X156117092Y-114696893D01*
X156109500Y-114725225D01*
X156109500Y-115195107D01*
X156090287Y-115254238D01*
X156039987Y-115290783D01*
X155977813Y-115290783D01*
X155937765Y-115266242D01*
X154334965Y-113663442D01*
X154306739Y-113608044D01*
X154305500Y-113592307D01*
X154305500Y-112500344D01*
X154305499Y-112500338D01*
X154279503Y-112403320D01*
X154279501Y-112403317D01*
X154279501Y-112403314D01*
X154229276Y-112316321D01*
X154194957Y-112282002D01*
X154158247Y-112245291D01*
X154158247Y-112245292D01*
X140641392Y-98728437D01*
X140613166Y-98673039D01*
X140622892Y-98611631D01*
X140641392Y-98586167D01*
X140738319Y-98489240D01*
X140848550Y-98379009D01*
X140890602Y-98316076D01*
X140910354Y-98216775D01*
X140890602Y-98117474D01*
X140848552Y-98054541D01*
X139752442Y-96958433D01*
X139689509Y-96916381D01*
X139689507Y-96916380D01*
X139590208Y-96896629D01*
X139490907Y-96916380D01*
X139427970Y-96958434D01*
X138331867Y-98054539D01*
X138289814Y-98117474D01*
X138289813Y-98117475D01*
X138270062Y-98216775D01*
X138289813Y-98316075D01*
X138289814Y-98316076D01*
X138331864Y-98379009D01*
X139427974Y-99475117D01*
X139490907Y-99517169D01*
X139590208Y-99536921D01*
X139689509Y-99517169D01*
X139752442Y-99475119D01*
X139959600Y-99267959D01*
X140014996Y-99239734D01*
X140076405Y-99249460D01*
X140101869Y-99267960D01*
X153513035Y-112679126D01*
X153541261Y-112734524D01*
X153542500Y-112750261D01*
X153542500Y-113842229D01*
X153568496Y-113939247D01*
X153568498Y-113939252D01*
X153568499Y-113939254D01*
X153579418Y-113958167D01*
X153586474Y-113970388D01*
X153612600Y-114015641D01*
X153618724Y-114026247D01*
X154238064Y-114645587D01*
X154266289Y-114700983D01*
X154256563Y-114762391D01*
X154212599Y-114806355D01*
X154205427Y-114809662D01*
X154152360Y-114831643D01*
X154036526Y-114920526D01*
X153947643Y-115036360D01*
X153947642Y-115036362D01*
X153891771Y-115171246D01*
X153872715Y-115315996D01*
X153872715Y-115315998D01*
X153872715Y-115316000D01*
X153874425Y-115328987D01*
X153863093Y-115390120D01*
X153817993Y-115432918D01*
X153756351Y-115441032D01*
X153714548Y-115422763D01*
X153683566Y-115399660D01*
X153683558Y-115399656D01*
X153572072Y-115361383D01*
X153454193Y-115361383D01*
X153342700Y-115399657D01*
X153287081Y-115441131D01*
X152751859Y-115976353D01*
X153108383Y-116332877D01*
X153136609Y-116388275D01*
X153126883Y-116449683D01*
X153108383Y-116475147D01*
X152274563Y-117308967D01*
X152332484Y-117366887D01*
X152388109Y-117408367D01*
X152499595Y-117446640D01*
X152499598Y-117446641D01*
X152617475Y-117446641D01*
X152728967Y-117408366D01*
X152784586Y-117366892D01*
X153998714Y-116152762D01*
X153998716Y-116152759D01*
X154040187Y-116097146D01*
X154040189Y-116097142D01*
X154078462Y-115985656D01*
X154078463Y-115985654D01*
X154078463Y-115920305D01*
X154097676Y-115861174D01*
X154147976Y-115824629D01*
X154210150Y-115824629D01*
X154217542Y-115827355D01*
X154287246Y-115856228D01*
X154364240Y-115866364D01*
X154420901Y-115873824D01*
X154477019Y-115900590D01*
X154478906Y-115902428D01*
X154529035Y-115952557D01*
X154557261Y-116007955D01*
X154558500Y-116023692D01*
X154558500Y-116096204D01*
X154539287Y-116155335D01*
X154529037Y-116167336D01*
X154517728Y-116178644D01*
X154462332Y-116206870D01*
X154446595Y-116208109D01*
X154347090Y-116208109D01*
X154347088Y-116208109D01*
X154347083Y-116208110D01*
X154225230Y-116247701D01*
X154225226Y-116247704D01*
X154147642Y-116304072D01*
X152935893Y-117515821D01*
X152879525Y-117593405D01*
X152879522Y-117593409D01*
X152839931Y-117715262D01*
X152839930Y-117715271D01*
X152839930Y-117843398D01*
X152839931Y-117843407D01*
X152879522Y-117965260D01*
X152879525Y-117965264D01*
X152935893Y-118042848D01*
X152935895Y-118042850D01*
X153193047Y-118300002D01*
X153267266Y-118353926D01*
X153270632Y-118356371D01*
X153270636Y-118356374D01*
X153392489Y-118395965D01*
X153392491Y-118395965D01*
X153392496Y-118395967D01*
X153392498Y-118395967D01*
X153520626Y-118395967D01*
X153520628Y-118395967D01*
X153538925Y-118390022D01*
X153650022Y-118353926D01*
X153650464Y-118355287D01*
X153703388Y-118346901D01*
X153758788Y-118375124D01*
X153787018Y-118430519D01*
X153778638Y-118483459D01*
X153779997Y-118483901D01*
X153737957Y-118613288D01*
X153737956Y-118613297D01*
X153737956Y-118712799D01*
X153718743Y-118771930D01*
X153708491Y-118783934D01*
X153618726Y-118873699D01*
X153618724Y-118873701D01*
X153618724Y-118873702D01*
X153595484Y-118913955D01*
X153585595Y-118931083D01*
X153559716Y-118960592D01*
X153528529Y-118984523D01*
X153528524Y-118984527D01*
X153439646Y-119100355D01*
X153439642Y-119100362D01*
X153383771Y-119235246D01*
X153364715Y-119379996D01*
X153364715Y-119380003D01*
X153383771Y-119524754D01*
X153439644Y-119659642D01*
X153439645Y-119659643D01*
X153528526Y-119775474D01*
X153644357Y-119864355D01*
X153779245Y-119920228D01*
X153923997Y-119939285D01*
X153924000Y-119939285D01*
X153924003Y-119939285D01*
X154068754Y-119920228D01*
X154203643Y-119864355D01*
X154319474Y-119775474D01*
X154408355Y-119659643D01*
X154436169Y-119592494D01*
X154442440Y-119577356D01*
X154482819Y-119530078D01*
X154543275Y-119515564D01*
X154600717Y-119539357D01*
X154633202Y-119592370D01*
X154635982Y-119615854D01*
X154635982Y-119639449D01*
X154635983Y-119639458D01*
X154675574Y-119761311D01*
X154675577Y-119761315D01*
X154731945Y-119838899D01*
X154989100Y-120096054D01*
X155027892Y-120124238D01*
X155063318Y-120149977D01*
X155066684Y-120152422D01*
X155066688Y-120152425D01*
X155188541Y-120192016D01*
X155188543Y-120192016D01*
X155188548Y-120192018D01*
X155188550Y-120192018D01*
X155316678Y-120192018D01*
X155316680Y-120192018D01*
X155323367Y-120189844D01*
X155446074Y-120149977D01*
X155446516Y-120151339D01*
X155499433Y-120142951D01*
X155554834Y-120171170D01*
X155583068Y-120226564D01*
X155574689Y-120279510D01*
X155576048Y-120279952D01*
X155534008Y-120409339D01*
X155534007Y-120409348D01*
X155534007Y-120448900D01*
X155514794Y-120508031D01*
X155464494Y-120544576D01*
X155433407Y-120549500D01*
X149032509Y-120549500D01*
X148973378Y-120530287D01*
X148961374Y-120520035D01*
X145263706Y-116822367D01*
X151993205Y-116822367D01*
X151993205Y-116940246D01*
X152031479Y-117051739D01*
X152072953Y-117107358D01*
X152130878Y-117165283D01*
X152892149Y-116404011D01*
X152608176Y-116120038D01*
X152072953Y-116655261D01*
X152072951Y-116655264D01*
X152031480Y-116710877D01*
X152031478Y-116710881D01*
X151993205Y-116822367D01*
X145263706Y-116822367D01*
X139779623Y-111338284D01*
X139751397Y-111282886D01*
X139751020Y-111254012D01*
X139751285Y-111252000D01*
X139732228Y-111107246D01*
X139721519Y-111081392D01*
X139676357Y-110972362D01*
X139676353Y-110972355D01*
X139587475Y-110856527D01*
X139587472Y-110856524D01*
X139533572Y-110815165D01*
X139471643Y-110767645D01*
X139471641Y-110767644D01*
X139471642Y-110767644D01*
X139336754Y-110711771D01*
X139192003Y-110692715D01*
X139191997Y-110692715D01*
X139047246Y-110711771D01*
X138912362Y-110767642D01*
X138912360Y-110767643D01*
X138796526Y-110856526D01*
X138707643Y-110972360D01*
X138707642Y-110972362D01*
X138651771Y-111107246D01*
X138632715Y-111251996D01*
X138632715Y-111252003D01*
X138651771Y-111396754D01*
X138707644Y-111531642D01*
X138707645Y-111531643D01*
X138796526Y-111647474D01*
X138912357Y-111736355D01*
X139047245Y-111792228D01*
X139073112Y-111795633D01*
X139192000Y-111811285D01*
X139194009Y-111811020D01*
X139195439Y-111811285D01*
X139198595Y-111811285D01*
X139198595Y-111811869D01*
X139255143Y-111822344D01*
X139278284Y-111839623D01*
X140549063Y-113110402D01*
X140577289Y-113165800D01*
X140567563Y-113227208D01*
X140523599Y-113271172D01*
X140516426Y-113274479D01*
X140436362Y-113307642D01*
X140436360Y-113307643D01*
X140320526Y-113396526D01*
X140231643Y-113512360D01*
X140231642Y-113512362D01*
X140198479Y-113592426D01*
X140158100Y-113639704D01*
X140097644Y-113654218D01*
X140040202Y-113630425D01*
X140034402Y-113625063D01*
X139779623Y-113370284D01*
X139751397Y-113314886D01*
X139751020Y-113286012D01*
X139751285Y-113284000D01*
X139732228Y-113139246D01*
X139728875Y-113131152D01*
X139676357Y-113004362D01*
X139676353Y-113004355D01*
X139587475Y-112888527D01*
X139587472Y-112888524D01*
X139533572Y-112847165D01*
X139471643Y-112799645D01*
X139471641Y-112799644D01*
X139471642Y-112799644D01*
X139336754Y-112743771D01*
X139192003Y-112724715D01*
X139191997Y-112724715D01*
X139047246Y-112743771D01*
X138912362Y-112799642D01*
X138912360Y-112799643D01*
X138796526Y-112888526D01*
X138707643Y-113004360D01*
X138707642Y-113004362D01*
X138651771Y-113139246D01*
X138632715Y-113283996D01*
X138632715Y-113284003D01*
X138651771Y-113428754D01*
X138707644Y-113563642D01*
X138707645Y-113563643D01*
X138796526Y-113679474D01*
X138912357Y-113768355D01*
X139047245Y-113824228D01*
X139073112Y-113827633D01*
X139192000Y-113843285D01*
X139194009Y-113843020D01*
X139195439Y-113843285D01*
X139198595Y-113843285D01*
X139198595Y-113843869D01*
X139255143Y-113854344D01*
X139278284Y-113871623D01*
X147926433Y-122519772D01*
X147954659Y-122575170D01*
X147944933Y-122636578D01*
X147900969Y-122680542D01*
X147855298Y-122691507D01*
X147697274Y-122691507D01*
X147530406Y-122732637D01*
X147378235Y-122812502D01*
X147249598Y-122926464D01*
X147249594Y-122926468D01*
X147151967Y-123067905D01*
X147151967Y-123067906D01*
X147146242Y-123083003D01*
X147118348Y-123156555D01*
X147091025Y-123228600D01*
X147091023Y-123228609D01*
X147070309Y-123399203D01*
X147070309Y-123399207D01*
X147091023Y-123569804D01*
X147091024Y-123569810D01*
X147091025Y-123569815D01*
X147146222Y-123715359D01*
X147151967Y-123730507D01*
X147151967Y-123730508D01*
X147249594Y-123871945D01*
X147249598Y-123871949D01*
X147296912Y-123913865D01*
X147378235Y-123985911D01*
X147530406Y-124065776D01*
X147530407Y-124065776D01*
X147530410Y-124065778D01*
X147697277Y-124106907D01*
X147697281Y-124106907D01*
X147869133Y-124106907D01*
X147869137Y-124106907D01*
X148036004Y-124065778D01*
X148188179Y-123985911D01*
X148316819Y-123871946D01*
X148349803Y-123824159D01*
X148399205Y-123786410D01*
X148432595Y-123780707D01*
X152783267Y-123780707D01*
X152783269Y-123780707D01*
X152805737Y-123774686D01*
X152831773Y-123771259D01*
X159863715Y-123771259D01*
X159863717Y-123771259D01*
X159960746Y-123745260D01*
X160047739Y-123695035D01*
X160118768Y-123624006D01*
X160118768Y-123624005D01*
X161768249Y-121974522D01*
X161823645Y-121946298D01*
X161885053Y-121956024D01*
X161910516Y-121974523D01*
X162590615Y-122654659D01*
X163124998Y-123189071D01*
X163153223Y-123244469D01*
X163143495Y-123305878D01*
X163136654Y-123317350D01*
X163071352Y-123411958D01*
X163055197Y-123454556D01*
X163011487Y-123569813D01*
X163010410Y-123572652D01*
X163010408Y-123572661D01*
X162989694Y-123743255D01*
X162989694Y-123743262D01*
X163010408Y-123913856D01*
X163010409Y-123913862D01*
X163010410Y-123913867D01*
X163058750Y-124041330D01*
X163071352Y-124074559D01*
X163071352Y-124074560D01*
X163168979Y-124215997D01*
X163168983Y-124216001D01*
X163200714Y-124244112D01*
X163297620Y-124329963D01*
X163449791Y-124409828D01*
X163449792Y-124409828D01*
X163449795Y-124409830D01*
X163616662Y-124450959D01*
X163616666Y-124450959D01*
X163626698Y-124450959D01*
X163685829Y-124470172D01*
X163722374Y-124520472D01*
X163722374Y-124582646D01*
X163697833Y-124622694D01*
X163397226Y-124923300D01*
X163341828Y-124951526D01*
X163326095Y-124952765D01*
X163015539Y-124952777D01*
X162956407Y-124933566D01*
X162944400Y-124923312D01*
X162504932Y-124483846D01*
X162504927Y-124483842D01*
X162457879Y-124445926D01*
X162457875Y-124445924D01*
X162325919Y-124385663D01*
X162325911Y-124385661D01*
X162218627Y-124370235D01*
X162182320Y-124365015D01*
X162182319Y-124365015D01*
X162038722Y-124385662D01*
X162038721Y-124385662D01*
X161906767Y-124445923D01*
X161906763Y-124445925D01*
X161859704Y-124483847D01*
X161724563Y-124618988D01*
X161669165Y-124647215D01*
X161607756Y-124637488D01*
X161582289Y-124618984D01*
X161533023Y-124569712D01*
X161184573Y-124221223D01*
X161184540Y-124221184D01*
X161134975Y-124171619D01*
X161108447Y-124145088D01*
X161108439Y-124145083D01*
X161057570Y-124115714D01*
X161042316Y-124106906D01*
X161021456Y-124094860D01*
X160979982Y-124083747D01*
X160979979Y-124083746D01*
X160924439Y-124068861D01*
X160924428Y-124068859D01*
X160924417Y-124068859D01*
X160884259Y-124068859D01*
X160823989Y-124068856D01*
X160823987Y-124068856D01*
X160817309Y-124068856D01*
X160817265Y-124068859D01*
X155627288Y-124068859D01*
X155627271Y-124068858D01*
X155520667Y-124068858D01*
X155520663Y-124068858D01*
X155520662Y-124068859D01*
X155520655Y-124068861D01*
X155463345Y-124084216D01*
X155463346Y-124084217D01*
X155423648Y-124094855D01*
X155423642Y-124094856D01*
X155423638Y-124094858D01*
X155423635Y-124094859D01*
X155423634Y-124094859D01*
X155423530Y-124094894D01*
X155422320Y-124095618D01*
X155339259Y-124143573D01*
X155337207Y-124144677D01*
X155336644Y-124145083D01*
X155296988Y-124184739D01*
X155271353Y-124210372D01*
X155271349Y-124210378D01*
X154787826Y-124693913D01*
X154732429Y-124722140D01*
X154731008Y-124722355D01*
X154614122Y-124739162D01*
X154614121Y-124739162D01*
X154482167Y-124799423D01*
X154482163Y-124799425D01*
X154435104Y-124837347D01*
X154299913Y-124972538D01*
X154244515Y-125000765D01*
X154183106Y-124991038D01*
X154157647Y-124972542D01*
X154108411Y-124923312D01*
X153719759Y-124534703D01*
X153683739Y-124498683D01*
X153683732Y-124498676D01*
X153683728Y-124498673D01*
X153638664Y-124472659D01*
X153638664Y-124472657D01*
X153638659Y-124472656D01*
X153597308Y-124448782D01*
X153596771Y-124448466D01*
X153596738Y-124448453D01*
X153596726Y-124448449D01*
X153596725Y-124448449D01*
X153542179Y-124433836D01*
X153542179Y-124433835D01*
X153542174Y-124433835D01*
X153518100Y-124427384D01*
X153499715Y-124422458D01*
X153499699Y-124422456D01*
X153499696Y-124422456D01*
X153439426Y-124422459D01*
X147495485Y-124422459D01*
X147495468Y-124422458D01*
X147489310Y-124422458D01*
X147439085Y-124422459D01*
X147388863Y-124422459D01*
X147388171Y-124422571D01*
X147385944Y-124423240D01*
X147333544Y-124437282D01*
X147333542Y-124437283D01*
X147291855Y-124448453D01*
X147291834Y-124448459D01*
X147266120Y-124463306D01*
X147204847Y-124498681D01*
X147204841Y-124498686D01*
X147131847Y-124571679D01*
X147131848Y-124571680D01*
X147131838Y-124571690D01*
X147131837Y-124571689D01*
X147009619Y-124693913D01*
X146954222Y-124722141D01*
X146952801Y-124722356D01*
X146835922Y-124739162D01*
X146835921Y-124739162D01*
X146703967Y-124799423D01*
X146703963Y-124799425D01*
X146656904Y-124837347D01*
X146521738Y-124972513D01*
X146466340Y-125000740D01*
X146404931Y-124991013D01*
X146379468Y-124972513D01*
X144724305Y-123317350D01*
X144137839Y-122730883D01*
X144050846Y-122680658D01*
X144050839Y-122680655D01*
X143953821Y-122654659D01*
X143953817Y-122654659D01*
X139004017Y-122654659D01*
X138903567Y-122654659D01*
X138903561Y-122654659D01*
X138806542Y-122680655D01*
X138806537Y-122680657D01*
X138719547Y-122730881D01*
X138719545Y-122730883D01*
X137610726Y-123839701D01*
X137555328Y-123867927D01*
X137493919Y-123858201D01*
X137468456Y-123839701D01*
X133840245Y-120211490D01*
X130172457Y-116543701D01*
X130144231Y-116488303D01*
X130142992Y-116472566D01*
X130142992Y-110380775D01*
X130162205Y-110321644D01*
X130176882Y-110305475D01*
X130254134Y-110237035D01*
X130295104Y-110200739D01*
X130392732Y-110059300D01*
X130453674Y-109898608D01*
X130474390Y-109728000D01*
X130473187Y-109718096D01*
X130453675Y-109557402D01*
X130453674Y-109557392D01*
X130392732Y-109396700D01*
X130372094Y-109366801D01*
X130295104Y-109255261D01*
X130295100Y-109255257D01*
X130176882Y-109150525D01*
X130145362Y-109096933D01*
X130142992Y-109075225D01*
X130142992Y-108843836D01*
X130142991Y-108843830D01*
X130116995Y-108746812D01*
X130116993Y-108746809D01*
X130116993Y-108746806D01*
X130066768Y-108659813D01*
X130066764Y-108659809D01*
X129992243Y-108585287D01*
X129992220Y-108585266D01*
X129244845Y-107837891D01*
X128532234Y-107125279D01*
X128504009Y-107069883D01*
X128513735Y-107008475D01*
X128532231Y-106983015D01*
X128667403Y-106847845D01*
X128705325Y-106800789D01*
X128765589Y-106668827D01*
X128786236Y-106525231D01*
X128765589Y-106381636D01*
X128764216Y-106378630D01*
X128705327Y-106249677D01*
X128705325Y-106249674D01*
X128705325Y-106249673D01*
X128667405Y-106202617D01*
X128068832Y-105604046D01*
X128068825Y-105604040D01*
X128021777Y-105566124D01*
X128021773Y-105566122D01*
X127889817Y-105505861D01*
X127889809Y-105505859D01*
X127782525Y-105490433D01*
X127746218Y-105485213D01*
X127746217Y-105485213D01*
X127602620Y-105505860D01*
X127602619Y-105505860D01*
X127470665Y-105566121D01*
X127470661Y-105566123D01*
X127423602Y-105604045D01*
X126592863Y-106434786D01*
X126537465Y-106463012D01*
X126476057Y-106453286D01*
X126432093Y-106409322D01*
X126421128Y-106363651D01*
X126421128Y-106316065D01*
X126440341Y-106256934D01*
X126450593Y-106244930D01*
X127129402Y-105566121D01*
X127813276Y-104882247D01*
X127863502Y-104795253D01*
X127889501Y-104698225D01*
X127889501Y-104597775D01*
X127889501Y-104591615D01*
X127889500Y-104591597D01*
X127889500Y-101091996D01*
X136092715Y-101091996D01*
X136092715Y-101092003D01*
X136111771Y-101236754D01*
X136167644Y-101371642D01*
X136185045Y-101394319D01*
X136256526Y-101487474D01*
X136372357Y-101576355D01*
X136507245Y-101632228D01*
X136651997Y-101651285D01*
X136652000Y-101651285D01*
X136652003Y-101651285D01*
X136796754Y-101632228D01*
X136796761Y-101632225D01*
X136931643Y-101576355D01*
X137047474Y-101487474D01*
X137048714Y-101485857D01*
X137049916Y-101485031D01*
X137052136Y-101482812D01*
X137052547Y-101483223D01*
X137099954Y-101450642D01*
X137128525Y-101446500D01*
X137398832Y-101446500D01*
X137457963Y-101465713D01*
X137469967Y-101475965D01*
X146732376Y-110738373D01*
X146760602Y-110793771D01*
X146760981Y-110822631D01*
X146760715Y-110824652D01*
X146760715Y-110824662D01*
X146779771Y-110969413D01*
X146835644Y-111104301D01*
X146835645Y-111104302D01*
X146924526Y-111220133D01*
X147040357Y-111309014D01*
X147175245Y-111364887D01*
X147319997Y-111383944D01*
X147320000Y-111383944D01*
X147320003Y-111383944D01*
X147464754Y-111364887D01*
X147522714Y-111340879D01*
X147599643Y-111309014D01*
X147715474Y-111220133D01*
X147804355Y-111104302D01*
X147860228Y-110969413D01*
X147866641Y-110920699D01*
X147879285Y-110824662D01*
X147879285Y-110824655D01*
X147860228Y-110679905D01*
X147804357Y-110545021D01*
X147804353Y-110545014D01*
X147715475Y-110429186D01*
X147715472Y-110429183D01*
X147623330Y-110358480D01*
X147599643Y-110340304D01*
X147599641Y-110340303D01*
X147599642Y-110340303D01*
X147464754Y-110284430D01*
X147320003Y-110265374D01*
X147319994Y-110265374D01*
X147317972Y-110265640D01*
X147316537Y-110265374D01*
X147313407Y-110265374D01*
X147313407Y-110264793D01*
X147256840Y-110254305D01*
X147233714Y-110237035D01*
X142538130Y-105541451D01*
X137805009Y-100808329D01*
X137724173Y-100761659D01*
X137634012Y-100737500D01*
X137128525Y-100737500D01*
X137069394Y-100718287D01*
X137048713Y-100698141D01*
X137047474Y-100696526D01*
X136931643Y-100607645D01*
X136931641Y-100607644D01*
X136931642Y-100607644D01*
X136796754Y-100551771D01*
X136652003Y-100532715D01*
X136651997Y-100532715D01*
X136507246Y-100551771D01*
X136372362Y-100607642D01*
X136372360Y-100607643D01*
X136256526Y-100696526D01*
X136167643Y-100812360D01*
X136167642Y-100812362D01*
X136111771Y-100947246D01*
X136092715Y-101091996D01*
X127889500Y-101091996D01*
X127889500Y-99889218D01*
X127908713Y-99830087D01*
X127918959Y-99818089D01*
X128667403Y-99069645D01*
X128705325Y-99022589D01*
X128765589Y-98890627D01*
X128786236Y-98747031D01*
X128765589Y-98603436D01*
X128752484Y-98574740D01*
X128705327Y-98471477D01*
X128705325Y-98471474D01*
X128705325Y-98471473D01*
X128667405Y-98424417D01*
X128068832Y-97825846D01*
X128068825Y-97825840D01*
X128021777Y-97787924D01*
X128021773Y-97787922D01*
X127889817Y-97727661D01*
X127889809Y-97727659D01*
X127782525Y-97712233D01*
X127746218Y-97707013D01*
X127746217Y-97707013D01*
X127602620Y-97727660D01*
X127602619Y-97727660D01*
X127470665Y-97787921D01*
X127470661Y-97787923D01*
X127423602Y-97825845D01*
X126471477Y-98777972D01*
X126471473Y-98777977D01*
X126433557Y-98825025D01*
X126433555Y-98825029D01*
X126373293Y-98956986D01*
X126373293Y-98956987D01*
X126352646Y-99100584D01*
X126373292Y-99244176D01*
X126373294Y-99244184D01*
X126433554Y-99376138D01*
X126433556Y-99376141D01*
X126433557Y-99376143D01*
X126471477Y-99423199D01*
X126471478Y-99423200D01*
X127070051Y-100021771D01*
X127070053Y-100021773D01*
X127089024Y-100037061D01*
X127123010Y-100089124D01*
X127126500Y-100115392D01*
X127126500Y-104448307D01*
X127107287Y-104507438D01*
X127097035Y-104519442D01*
X126975597Y-104640879D01*
X126920199Y-104669106D01*
X126858790Y-104659379D01*
X126814827Y-104615415D01*
X126804887Y-104555423D01*
X126806022Y-104547528D01*
X126806338Y-104545333D01*
X126785691Y-104401738D01*
X126738250Y-104297855D01*
X126725429Y-104269779D01*
X126725427Y-104269776D01*
X126725427Y-104269775D01*
X126687507Y-104222719D01*
X126088934Y-103624148D01*
X126082127Y-103618662D01*
X126041879Y-103586226D01*
X126041875Y-103586224D01*
X125909919Y-103525963D01*
X125909911Y-103525961D01*
X125802627Y-103510535D01*
X125766320Y-103505315D01*
X125766319Y-103505315D01*
X125622722Y-103525962D01*
X125622721Y-103525962D01*
X125491890Y-103585710D01*
X125430121Y-103592797D01*
X125375983Y-103562224D01*
X125350156Y-103505668D01*
X125349500Y-103494201D01*
X125349500Y-98256971D01*
X125368713Y-98197840D01*
X125419013Y-98161295D01*
X125435777Y-98157396D01*
X125556362Y-98140058D01*
X125688324Y-98079794D01*
X125735380Y-98041874D01*
X126687505Y-97089747D01*
X126725427Y-97042691D01*
X126785691Y-96910729D01*
X126806338Y-96767133D01*
X126785691Y-96623538D01*
X126725427Y-96491575D01*
X126687507Y-96444519D01*
X126687505Y-96444517D01*
X126481615Y-96238627D01*
X126453389Y-96183229D01*
X126463115Y-96121821D01*
X126481607Y-96096365D01*
X126502236Y-96075737D01*
X126524138Y-96053835D01*
X126526026Y-96052288D01*
X126530032Y-96048015D01*
X126531180Y-96046829D01*
X126531982Y-96045487D01*
X126535301Y-96040117D01*
X126536254Y-96037997D01*
X126557121Y-96001852D01*
X126581393Y-95959813D01*
X126581393Y-95959812D01*
X126581396Y-95959807D01*
X126603486Y-95877361D01*
X126603487Y-95877355D01*
X126606619Y-95865666D01*
X126607345Y-95863248D01*
X126607392Y-95862928D01*
X126607392Y-95862781D01*
X126607393Y-95862778D01*
X126607392Y-95808026D01*
X126607392Y-94046760D01*
X126607394Y-93994648D01*
X126607392Y-93994643D01*
X126607393Y-93994641D01*
X126607392Y-93994636D01*
X126607392Y-93994634D01*
X126596012Y-93952166D01*
X126582645Y-93902271D01*
X126581784Y-93898298D01*
X126581670Y-93898010D01*
X126580566Y-93896173D01*
X126547276Y-93838512D01*
X126531176Y-93810623D01*
X126531174Y-93810621D01*
X126531172Y-93810617D01*
X126531167Y-93810611D01*
X126488740Y-93768184D01*
X126488740Y-93768183D01*
X126488737Y-93768181D01*
X126167778Y-93447199D01*
X133472604Y-93447199D01*
X133945244Y-93919839D01*
X133995492Y-93953412D01*
X134074776Y-93969183D01*
X134154059Y-93953412D01*
X134204307Y-93919839D01*
X134676948Y-93447199D01*
X134074776Y-92845027D01*
X133472604Y-93447199D01*
X126167778Y-93447199D01*
X125222655Y-92502009D01*
X125194430Y-92446611D01*
X125193192Y-92430877D01*
X125193192Y-90609682D01*
X125212405Y-90550551D01*
X125262705Y-90514006D01*
X125324879Y-90514006D01*
X125364927Y-90538547D01*
X125443653Y-90617273D01*
X125443658Y-90617277D01*
X125490706Y-90655193D01*
X125490710Y-90655195D01*
X125622666Y-90715456D01*
X125622667Y-90715456D01*
X125622671Y-90715458D01*
X125766266Y-90736105D01*
X125909862Y-90715458D01*
X126041824Y-90655194D01*
X126088880Y-90617274D01*
X127041005Y-89665147D01*
X127078927Y-89618091D01*
X127139191Y-89486129D01*
X127159838Y-89342533D01*
X127139191Y-89198938D01*
X127106775Y-89127956D01*
X127078929Y-89066979D01*
X127078927Y-89066976D01*
X127078927Y-89066975D01*
X127041007Y-89019919D01*
X126995751Y-88974663D01*
X126845028Y-88823940D01*
X126816802Y-88768542D01*
X126826528Y-88707134D01*
X126870492Y-88663170D01*
X126931900Y-88653444D01*
X126962914Y-88663728D01*
X127033795Y-88700930D01*
X127200662Y-88742059D01*
X127200666Y-88742059D01*
X127372518Y-88742059D01*
X127372522Y-88742059D01*
X127539389Y-88700930D01*
X127691564Y-88621063D01*
X127820204Y-88507098D01*
X127917832Y-88365659D01*
X127978774Y-88204967D01*
X127993391Y-88084588D01*
X127999490Y-88034362D01*
X127999490Y-88034355D01*
X127978775Y-87863761D01*
X127978774Y-87863751D01*
X127917832Y-87703059D01*
X127914199Y-87697796D01*
X127820204Y-87561620D01*
X127820200Y-87561616D01*
X127691563Y-87447654D01*
X127539391Y-87367789D01*
X127539393Y-87367789D01*
X127372524Y-87326659D01*
X127372522Y-87326659D01*
X127200662Y-87326659D01*
X127200659Y-87326659D01*
X127033791Y-87367789D01*
X126881620Y-87447654D01*
X126752983Y-87561616D01*
X126752979Y-87561620D01*
X126655352Y-87703057D01*
X126655349Y-87703063D01*
X126620597Y-87794697D01*
X126597671Y-87830157D01*
X126149926Y-88277913D01*
X126094529Y-88306140D01*
X126093108Y-88306355D01*
X125976222Y-88323162D01*
X125976221Y-88323162D01*
X125844267Y-88383423D01*
X125844263Y-88383425D01*
X125797204Y-88421347D01*
X124845079Y-89373474D01*
X124845075Y-89373479D01*
X124807159Y-89420527D01*
X124807157Y-89420531D01*
X124746895Y-89552488D01*
X124746895Y-89552489D01*
X124730076Y-89669463D01*
X124702643Y-89725258D01*
X124701638Y-89726277D01*
X124550506Y-89877422D01*
X124506410Y-89921518D01*
X124506401Y-89921531D01*
X124490311Y-89949406D01*
X124490308Y-89949412D01*
X124456190Y-90008505D01*
X124456189Y-90008508D01*
X124456184Y-90008521D01*
X124443312Y-90056567D01*
X124443312Y-90056568D01*
X124430190Y-90105542D01*
X124430192Y-90151088D01*
X124430192Y-92597172D01*
X124430190Y-92680787D01*
X124430193Y-92680811D01*
X124430370Y-92681449D01*
X124437646Y-92708601D01*
X124437647Y-92708606D01*
X124456186Y-92777805D01*
X124484212Y-92826347D01*
X124484213Y-92826351D01*
X124484214Y-92826351D01*
X124506412Y-92864802D01*
X124548843Y-92907233D01*
X124548842Y-92907233D01*
X124548844Y-92907234D01*
X125814929Y-94173408D01*
X125843154Y-94228805D01*
X125844392Y-94244539D01*
X125844392Y-95612871D01*
X125825179Y-95672002D01*
X125814927Y-95684006D01*
X125796418Y-95702515D01*
X125741020Y-95730741D01*
X125739601Y-95730956D01*
X125622722Y-95747762D01*
X125622721Y-95747762D01*
X125490767Y-95808023D01*
X125490763Y-95808025D01*
X125443704Y-95845947D01*
X124491579Y-96798074D01*
X124491575Y-96798079D01*
X124453659Y-96845127D01*
X124453657Y-96845131D01*
X124393395Y-96977088D01*
X124393395Y-96977089D01*
X124372748Y-97120686D01*
X124393394Y-97264278D01*
X124393396Y-97264286D01*
X124453656Y-97396240D01*
X124453658Y-97396243D01*
X124453659Y-97396245D01*
X124476196Y-97424212D01*
X124491581Y-97443304D01*
X124491588Y-97443311D01*
X124557034Y-97508756D01*
X124585261Y-97564153D01*
X124586500Y-97579891D01*
X124586500Y-104150796D01*
X124612496Y-104247814D01*
X124612498Y-104247819D01*
X124612499Y-104247821D01*
X124638293Y-104292498D01*
X124641390Y-104297862D01*
X124649865Y-104312541D01*
X124662791Y-104373357D01*
X124637502Y-104430155D01*
X124633877Y-104433974D01*
X124491592Y-104576260D01*
X124491579Y-104576274D01*
X124453659Y-104623328D01*
X124453657Y-104623331D01*
X124393395Y-104755288D01*
X124393395Y-104755289D01*
X124372748Y-104898886D01*
X124393394Y-105042478D01*
X124393396Y-105042486D01*
X124453656Y-105174440D01*
X124453658Y-105174443D01*
X124453659Y-105174445D01*
X124474875Y-105200772D01*
X124491581Y-105221504D01*
X124491588Y-105221511D01*
X124557034Y-105286956D01*
X124585261Y-105342353D01*
X124586500Y-105358091D01*
X124586500Y-107686396D01*
X124612496Y-107783414D01*
X124612499Y-107783421D01*
X124662724Y-107870414D01*
X126168528Y-109376218D01*
X126196753Y-109431614D01*
X126197992Y-109447351D01*
X126197992Y-110108568D01*
X126178779Y-110167699D01*
X126168528Y-110179702D01*
X125796426Y-110551813D01*
X125741029Y-110580040D01*
X125739608Y-110580255D01*
X125622722Y-110597062D01*
X125622721Y-110597062D01*
X125490767Y-110657323D01*
X125490763Y-110657325D01*
X125443704Y-110695247D01*
X124491579Y-111647374D01*
X124491575Y-111647379D01*
X124453659Y-111694427D01*
X124453657Y-111694431D01*
X124393395Y-111826388D01*
X124393395Y-111826389D01*
X124372748Y-111969986D01*
X124393394Y-112113578D01*
X124393396Y-112113586D01*
X124453656Y-112245540D01*
X124453658Y-112245543D01*
X124453659Y-112245545D01*
X124476196Y-112273512D01*
X124491581Y-112292604D01*
X124491588Y-112292611D01*
X124557034Y-112358056D01*
X124585261Y-112413453D01*
X124586500Y-112429191D01*
X124586500Y-115464496D01*
X124612496Y-115561514D01*
X124612498Y-115561519D01*
X124612499Y-115561521D01*
X124645841Y-115619272D01*
X124662724Y-115648514D01*
X124662725Y-115648515D01*
X124974775Y-115960565D01*
X125003001Y-116015963D01*
X124993275Y-116077371D01*
X124949311Y-116121335D01*
X124903640Y-116132300D01*
X124882067Y-116132300D01*
X124715199Y-116173430D01*
X124563028Y-116253295D01*
X124434391Y-116367257D01*
X124434387Y-116367261D01*
X124336760Y-116508698D01*
X124336760Y-116508699D01*
X124309457Y-116580692D01*
X124281978Y-116653151D01*
X124275818Y-116669393D01*
X124275816Y-116669402D01*
X124255102Y-116839996D01*
X124255102Y-116840003D01*
X124275816Y-117010597D01*
X124275817Y-117010603D01*
X124275818Y-117010608D01*
X124327062Y-117145727D01*
X124336760Y-117171300D01*
X124336760Y-117171301D01*
X124434387Y-117312738D01*
X124434391Y-117312742D01*
X124552610Y-117417475D01*
X124584130Y-117471067D01*
X124586500Y-117492775D01*
X124586500Y-118292997D01*
X124612496Y-118390015D01*
X124612498Y-118390020D01*
X124612499Y-118390022D01*
X124638069Y-118434311D01*
X124649864Y-118454741D01*
X124662791Y-118515554D01*
X124637503Y-118572354D01*
X124633877Y-118576174D01*
X124491588Y-118718464D01*
X124491575Y-118718479D01*
X124453659Y-118765527D01*
X124453657Y-118765531D01*
X124393395Y-118897488D01*
X124393395Y-118897489D01*
X124372748Y-119041086D01*
X124393394Y-119184678D01*
X124393396Y-119184686D01*
X124453656Y-119316640D01*
X124453658Y-119316643D01*
X124453659Y-119316645D01*
X124466749Y-119332889D01*
X124491581Y-119363704D01*
X124491588Y-119363711D01*
X124557034Y-119429156D01*
X124585261Y-119484553D01*
X124586500Y-119500291D01*
X124586500Y-123242696D01*
X124612497Y-123339717D01*
X124612499Y-123339722D01*
X124646843Y-123399207D01*
X124646844Y-123399209D01*
X124662720Y-123426709D01*
X124662721Y-123426710D01*
X124662722Y-123426711D01*
X124662724Y-123426714D01*
X125277340Y-124041330D01*
X125788757Y-124552747D01*
X125816983Y-124608145D01*
X125807257Y-124669553D01*
X125763293Y-124713517D01*
X125731940Y-124723458D01*
X125622722Y-124739162D01*
X125622721Y-124739162D01*
X125490767Y-124799423D01*
X125490763Y-124799425D01*
X125443704Y-124837347D01*
X124491579Y-125789474D01*
X124491575Y-125789479D01*
X124453659Y-125836527D01*
X124453657Y-125836531D01*
X124393395Y-125968488D01*
X124393395Y-125968489D01*
X124378669Y-126070905D01*
X124372748Y-126112087D01*
X124377083Y-126142238D01*
X124393394Y-126255678D01*
X124393396Y-126255686D01*
X124453656Y-126387640D01*
X124453658Y-126387643D01*
X124453659Y-126387645D01*
X124491579Y-126434701D01*
X124491580Y-126434702D01*
X125090153Y-127033273D01*
X125090158Y-127033277D01*
X125137206Y-127071193D01*
X125137210Y-127071195D01*
X125269166Y-127131456D01*
X125269167Y-127131456D01*
X125269171Y-127131458D01*
X125412766Y-127152105D01*
X125556362Y-127131458D01*
X125688324Y-127071194D01*
X125735380Y-127033274D01*
X126687505Y-126081147D01*
X126725427Y-126034091D01*
X126785691Y-125902129D01*
X126806338Y-125758533D01*
X126785691Y-125614938D01*
X126780995Y-125604656D01*
X126773910Y-125542890D01*
X126804484Y-125488752D01*
X126827527Y-125474551D01*
X126826901Y-125473358D01*
X126898239Y-125435917D01*
X126984464Y-125390663D01*
X127113104Y-125276698D01*
X127210732Y-125135259D01*
X127271674Y-124974567D01*
X127285002Y-124864798D01*
X127311202Y-124808418D01*
X127365540Y-124778202D01*
X127427261Y-124785696D01*
X127456003Y-124805793D01*
X128643427Y-125993217D01*
X128671653Y-126048615D01*
X128672892Y-126064352D01*
X128672892Y-126725563D01*
X128653679Y-126784694D01*
X128643426Y-126796699D01*
X128416987Y-127023132D01*
X128361589Y-127051358D01*
X128300180Y-127041631D01*
X128274718Y-127023131D01*
X128068830Y-126817244D01*
X128068825Y-126817240D01*
X128021777Y-126779324D01*
X128021773Y-126779322D01*
X127889817Y-126719061D01*
X127889809Y-126719059D01*
X127758486Y-126700177D01*
X127746218Y-126698413D01*
X127746217Y-126698413D01*
X127602620Y-126719060D01*
X127602619Y-126719060D01*
X127470665Y-126779321D01*
X127470661Y-126779323D01*
X127423602Y-126817245D01*
X126471477Y-127769372D01*
X126471473Y-127769377D01*
X126433557Y-127816425D01*
X126433555Y-127816429D01*
X126373293Y-127948386D01*
X126373293Y-127948387D01*
X126358107Y-128054006D01*
X126352646Y-128091985D01*
X126354532Y-128105100D01*
X126373292Y-128235576D01*
X126373294Y-128235584D01*
X126433554Y-128367538D01*
X126433556Y-128367541D01*
X126433557Y-128367543D01*
X126471477Y-128414599D01*
X126471478Y-128414600D01*
X127070051Y-129013171D01*
X127070056Y-129013175D01*
X127117104Y-129051091D01*
X127117108Y-129051093D01*
X127249064Y-129111354D01*
X127249065Y-129111354D01*
X127249069Y-129111356D01*
X127392664Y-129132003D01*
X127536260Y-129111356D01*
X127668222Y-129051092D01*
X127715278Y-129013172D01*
X128667403Y-128061045D01*
X128705325Y-128013989D01*
X128765589Y-127882027D01*
X128782395Y-127765143D01*
X128809828Y-127709349D01*
X128810837Y-127708325D01*
X128811624Y-127707538D01*
X129278965Y-127240204D01*
X129278976Y-127240197D01*
X129288637Y-127230535D01*
X129288639Y-127230535D01*
X129359668Y-127159506D01*
X129396410Y-127095867D01*
X129396411Y-127095864D01*
X129396413Y-127095863D01*
X129409890Y-127072521D01*
X129409890Y-127072518D01*
X129409892Y-127072516D01*
X129435892Y-126975488D01*
X129435893Y-126875038D01*
X129435892Y-126875034D01*
X129435892Y-126112087D01*
X131443748Y-126112087D01*
X131448083Y-126142238D01*
X131464394Y-126255678D01*
X131464396Y-126255686D01*
X131524656Y-126387640D01*
X131524658Y-126387643D01*
X131524659Y-126387645D01*
X131562579Y-126434701D01*
X131562580Y-126434702D01*
X132161153Y-127033273D01*
X132161158Y-127033277D01*
X132208206Y-127071193D01*
X132208210Y-127071195D01*
X132340166Y-127131456D01*
X132340167Y-127131456D01*
X132340171Y-127131458D01*
X132483766Y-127152105D01*
X132627362Y-127131458D01*
X132759324Y-127071194D01*
X132806380Y-127033274D01*
X133758505Y-126081147D01*
X133796427Y-126034091D01*
X133856691Y-125902129D01*
X133877338Y-125758533D01*
X133856691Y-125614938D01*
X133851995Y-125604656D01*
X133844910Y-125542890D01*
X133875484Y-125488752D01*
X133898527Y-125474551D01*
X133897901Y-125473358D01*
X133969239Y-125435917D01*
X134055464Y-125390663D01*
X134184104Y-125276698D01*
X134281732Y-125135259D01*
X134342674Y-124974567D01*
X134359852Y-124833098D01*
X134363390Y-124803962D01*
X134363390Y-124803955D01*
X134342675Y-124633361D01*
X134342674Y-124633351D01*
X134281732Y-124472659D01*
X134254934Y-124433836D01*
X134184104Y-124331220D01*
X134184100Y-124331216D01*
X134055463Y-124217254D01*
X133903291Y-124137389D01*
X133903293Y-124137389D01*
X133736424Y-124096259D01*
X133736422Y-124096259D01*
X133564562Y-124096259D01*
X133564559Y-124096259D01*
X133397691Y-124137389D01*
X133245520Y-124217254D01*
X133116883Y-124331216D01*
X133116879Y-124331220D01*
X133019254Y-124472656D01*
X133019252Y-124472658D01*
X132990728Y-124547872D01*
X132967149Y-124610046D01*
X132958310Y-124633352D01*
X132956853Y-124639264D01*
X132955301Y-124638881D01*
X132932258Y-124688458D01*
X132877916Y-124718668D01*
X132844282Y-124719516D01*
X132842195Y-124719216D01*
X132837320Y-124718515D01*
X132693722Y-124739162D01*
X132693721Y-124739162D01*
X132561767Y-124799423D01*
X132561763Y-124799425D01*
X132514704Y-124837347D01*
X131562579Y-125789474D01*
X131562575Y-125789479D01*
X131524659Y-125836527D01*
X131524657Y-125836531D01*
X131464395Y-125968488D01*
X131464395Y-125968489D01*
X131449669Y-126070905D01*
X131443748Y-126112087D01*
X129435892Y-126112087D01*
X129435892Y-125814434D01*
X129430563Y-125794546D01*
X129409895Y-125717411D01*
X129409893Y-125717408D01*
X129409893Y-125717405D01*
X129359668Y-125630412D01*
X129332045Y-125602789D01*
X129288639Y-125559382D01*
X129288639Y-125559383D01*
X126394965Y-122665709D01*
X126366739Y-122610311D01*
X126365500Y-122594574D01*
X126365500Y-121480491D01*
X126384713Y-121421360D01*
X126435013Y-121384815D01*
X126497187Y-121384815D01*
X126537232Y-121409354D01*
X126921380Y-121793500D01*
X127070051Y-121942171D01*
X127070056Y-121942175D01*
X127117104Y-121980091D01*
X127117108Y-121980093D01*
X127249064Y-122040354D01*
X127249065Y-122040354D01*
X127249069Y-122040356D01*
X127392664Y-122061003D01*
X127536260Y-122040356D01*
X127668222Y-121980092D01*
X127715278Y-121942172D01*
X128667403Y-120990045D01*
X128705325Y-120942989D01*
X128765589Y-120811027D01*
X128782395Y-120694143D01*
X128809828Y-120638349D01*
X128810837Y-120637325D01*
X129252526Y-120195644D01*
X129299587Y-120169104D01*
X129307185Y-120167231D01*
X129307185Y-120167230D01*
X129307189Y-120167230D01*
X129459364Y-120087363D01*
X129588004Y-119973398D01*
X129685632Y-119831959D01*
X129746574Y-119671267D01*
X129763718Y-119530078D01*
X129767290Y-119500662D01*
X129767290Y-119500655D01*
X129748550Y-119346322D01*
X129746574Y-119330051D01*
X129685632Y-119169359D01*
X129625582Y-119082362D01*
X129588004Y-119027920D01*
X129588000Y-119027916D01*
X129459363Y-118913954D01*
X129307191Y-118834089D01*
X129307193Y-118834089D01*
X129140324Y-118792959D01*
X129140322Y-118792959D01*
X128968462Y-118792959D01*
X128968459Y-118792959D01*
X128801591Y-118834089D01*
X128649420Y-118913954D01*
X128520783Y-119027916D01*
X128520779Y-119027920D01*
X128423152Y-119169357D01*
X128423152Y-119169358D01*
X128392681Y-119249705D01*
X128367295Y-119316645D01*
X128362210Y-119330052D01*
X128362208Y-119330061D01*
X128341494Y-119500655D01*
X128341494Y-119500662D01*
X128362208Y-119671256D01*
X128362209Y-119671262D01*
X128362210Y-119671267D01*
X128421075Y-119826482D01*
X128424078Y-119888584D01*
X128390006Y-119940591D01*
X128331872Y-119962638D01*
X128271881Y-119946304D01*
X128255877Y-119933290D01*
X128068830Y-119746244D01*
X128068825Y-119746240D01*
X128021777Y-119708324D01*
X128021773Y-119708322D01*
X127889817Y-119648061D01*
X127889809Y-119648059D01*
X127782525Y-119632633D01*
X127746218Y-119627413D01*
X127746217Y-119627413D01*
X127602620Y-119648060D01*
X127599045Y-119649693D01*
X127595787Y-119650066D01*
X127595718Y-119650087D01*
X127595714Y-119650074D01*
X127537275Y-119656776D01*
X127483139Y-119626199D01*
X127457315Y-119569642D01*
X127469666Y-119508707D01*
X127486121Y-119487050D01*
X127520836Y-119452336D01*
X127520839Y-119452335D01*
X127591868Y-119381306D01*
X127642093Y-119294313D01*
X127652546Y-119255304D01*
X127668091Y-119197288D01*
X127668092Y-119197282D01*
X127668092Y-117682635D01*
X127668091Y-117682629D01*
X127642095Y-117585611D01*
X127642093Y-117585608D01*
X127642093Y-117585605D01*
X127591868Y-117498612D01*
X127564323Y-117471067D01*
X127517343Y-117424086D01*
X127517320Y-117424065D01*
X125378965Y-115285709D01*
X125350739Y-115230311D01*
X125349500Y-115214574D01*
X125349500Y-113949884D01*
X126352646Y-113949884D01*
X126373292Y-114093476D01*
X126373294Y-114093484D01*
X126433554Y-114225438D01*
X126433556Y-114225441D01*
X126433557Y-114225443D01*
X126471477Y-114272499D01*
X126608428Y-114409450D01*
X126677318Y-114478339D01*
X126705544Y-114533736D01*
X126695818Y-114595145D01*
X126677318Y-114620609D01*
X126663095Y-114634832D01*
X126627724Y-114670200D01*
X126627718Y-114670208D01*
X126627716Y-114670212D01*
X126600352Y-114717606D01*
X126591758Y-114732490D01*
X126577492Y-114757198D01*
X126564605Y-114805292D01*
X126564605Y-114805293D01*
X126551494Y-114854219D01*
X126551493Y-114854221D01*
X126551493Y-114854226D01*
X126551492Y-114854234D01*
X126551492Y-114894398D01*
X126551490Y-114944656D01*
X126551489Y-114961347D01*
X126551492Y-114961392D01*
X126551492Y-115201447D01*
X126551484Y-115201573D01*
X126551492Y-115258113D01*
X126551492Y-115308315D01*
X126565047Y-115358875D01*
X126565051Y-115358888D01*
X126577498Y-115405341D01*
X126578244Y-115406632D01*
X126578500Y-115407838D01*
X126578613Y-115408119D01*
X126579320Y-115409573D01*
X126579833Y-115410765D01*
X126579695Y-115410824D01*
X126579708Y-115410855D01*
X126579186Y-115411063D01*
X126591179Y-115467446D01*
X126590995Y-115469070D01*
X126573694Y-115611555D01*
X126573694Y-115611562D01*
X126594408Y-115782156D01*
X126594409Y-115782162D01*
X126594410Y-115782167D01*
X126655352Y-115942859D01*
X126655352Y-115942860D01*
X126752979Y-116084297D01*
X126752983Y-116084301D01*
X126846714Y-116167339D01*
X126881620Y-116198263D01*
X127033791Y-116278128D01*
X127033792Y-116278128D01*
X127033795Y-116278130D01*
X127200662Y-116319259D01*
X127200666Y-116319259D01*
X127372518Y-116319259D01*
X127372522Y-116319259D01*
X127539389Y-116278130D01*
X127691564Y-116198263D01*
X127820204Y-116084298D01*
X127917832Y-115942859D01*
X127978774Y-115782167D01*
X127996074Y-115639690D01*
X127999490Y-115611562D01*
X127999490Y-115611555D01*
X127984637Y-115489239D01*
X127978774Y-115440951D01*
X127917832Y-115280259D01*
X127895395Y-115247754D01*
X127820204Y-115138820D01*
X127820200Y-115138816D01*
X127713193Y-115044017D01*
X127701060Y-115033268D01*
X127669541Y-114979677D01*
X127675542Y-114917793D01*
X127704649Y-114879636D01*
X127715278Y-114871072D01*
X128667403Y-113918945D01*
X128705325Y-113871889D01*
X128765589Y-113739927D01*
X128786236Y-113596331D01*
X128765589Y-113452736D01*
X128748435Y-113415174D01*
X128705327Y-113320777D01*
X128705325Y-113320774D01*
X128705325Y-113320773D01*
X128667405Y-113273717D01*
X128068832Y-112675146D01*
X128068825Y-112675140D01*
X128021777Y-112637224D01*
X128021773Y-112637222D01*
X127889817Y-112576961D01*
X127889809Y-112576959D01*
X127782525Y-112561533D01*
X127746218Y-112556313D01*
X127746217Y-112556313D01*
X127602620Y-112576960D01*
X127602619Y-112576960D01*
X127470665Y-112637221D01*
X127470661Y-112637223D01*
X127423602Y-112675145D01*
X126471477Y-113627272D01*
X126471473Y-113627277D01*
X126433557Y-113674325D01*
X126433555Y-113674329D01*
X126373293Y-113806286D01*
X126373293Y-113806287D01*
X126352646Y-113949884D01*
X125349500Y-113949884D01*
X125349500Y-113106271D01*
X125368713Y-113047140D01*
X125419013Y-113010595D01*
X125435777Y-113006696D01*
X125556362Y-112989358D01*
X125688324Y-112929094D01*
X125735380Y-112891174D01*
X126687505Y-111939047D01*
X126725427Y-111891991D01*
X126785691Y-111760029D01*
X126806338Y-111616433D01*
X126785691Y-111472838D01*
X126762752Y-111422608D01*
X126725429Y-111340879D01*
X126725427Y-111340876D01*
X126725427Y-111340875D01*
X126687507Y-111293819D01*
X126481618Y-111087931D01*
X126453393Y-111032535D01*
X126463119Y-110971126D01*
X126481618Y-110945663D01*
X126506581Y-110920700D01*
X126820283Y-110606991D01*
X126884768Y-110542506D01*
X126934993Y-110455513D01*
X126934993Y-110455511D01*
X126934994Y-110455510D01*
X126942048Y-110429186D01*
X126960993Y-110358480D01*
X126960992Y-110258029D01*
X126960992Y-109197434D01*
X126960991Y-109197432D01*
X126960991Y-109197428D01*
X126934995Y-109100409D01*
X126934993Y-109100404D01*
X126884767Y-109013411D01*
X126237452Y-108366096D01*
X126209226Y-108310698D01*
X126218952Y-108249290D01*
X126262916Y-108205326D01*
X126284504Y-108197287D01*
X126292425Y-108195335D01*
X126444600Y-108115468D01*
X126573240Y-108001503D01*
X126670868Y-107860064D01*
X126731810Y-107699372D01*
X126732635Y-107692571D01*
X126758832Y-107636187D01*
X126813168Y-107605968D01*
X126874889Y-107613459D01*
X126903637Y-107633558D01*
X127070051Y-107799971D01*
X127070056Y-107799975D01*
X127117104Y-107837891D01*
X127117108Y-107837893D01*
X127249064Y-107898154D01*
X127249065Y-107898154D01*
X127249069Y-107898156D01*
X127392664Y-107918803D01*
X127536260Y-107898156D01*
X127668222Y-107837892D01*
X127715278Y-107799972D01*
X127850444Y-107664804D01*
X127905841Y-107636579D01*
X127967250Y-107646305D01*
X127992714Y-107664805D01*
X129340703Y-109012793D01*
X129368929Y-109068191D01*
X129359203Y-109129599D01*
X129336278Y-109159228D01*
X129227883Y-109255257D01*
X129227879Y-109255261D01*
X129130252Y-109396698D01*
X129130252Y-109396699D01*
X129069310Y-109557393D01*
X129069308Y-109557402D01*
X129048594Y-109727996D01*
X129048594Y-109728003D01*
X129069308Y-109898597D01*
X129069309Y-109898603D01*
X129069310Y-109898608D01*
X129130252Y-110059300D01*
X129130252Y-110059301D01*
X129227879Y-110200738D01*
X129227883Y-110200742D01*
X129346102Y-110305475D01*
X129377622Y-110359067D01*
X129379992Y-110380775D01*
X129379992Y-116722488D01*
X129405988Y-116819506D01*
X129405990Y-116819511D01*
X129405991Y-116819513D01*
X129417817Y-116839996D01*
X129425093Y-116852599D01*
X129445997Y-116888807D01*
X129456216Y-116906506D01*
X133230070Y-120680359D01*
X136928944Y-124379233D01*
X136957170Y-124434631D01*
X136947444Y-124496039D01*
X136928946Y-124521501D01*
X135528487Y-125922041D01*
X135466615Y-125983913D01*
X135466611Y-125983918D01*
X135465645Y-125985523D01*
X135465107Y-125986523D01*
X135450452Y-126011909D01*
X135450450Y-126011912D01*
X135416389Y-126070908D01*
X135416385Y-126070916D01*
X135398601Y-126137298D01*
X135398600Y-126137302D01*
X135390390Y-126167940D01*
X135390392Y-126220161D01*
X135390392Y-126824935D01*
X135371179Y-126884066D01*
X135320879Y-126920611D01*
X135258705Y-126920611D01*
X135218657Y-126896070D01*
X135139830Y-126817244D01*
X135139825Y-126817240D01*
X135092777Y-126779324D01*
X135092773Y-126779322D01*
X134960817Y-126719061D01*
X134960809Y-126719059D01*
X134829486Y-126700177D01*
X134817218Y-126698413D01*
X134817217Y-126698413D01*
X134673620Y-126719060D01*
X134673619Y-126719060D01*
X134541665Y-126779321D01*
X134541661Y-126779323D01*
X134494602Y-126817245D01*
X133542477Y-127769372D01*
X133542473Y-127769377D01*
X133504557Y-127816425D01*
X133504555Y-127816429D01*
X133444293Y-127948386D01*
X133444293Y-127948387D01*
X133423646Y-128091985D01*
X133444292Y-128235576D01*
X133444294Y-128235584D01*
X133504554Y-128367538D01*
X133504556Y-128367541D01*
X133504557Y-128367543D01*
X133542477Y-128414599D01*
X133542478Y-128414600D01*
X134141051Y-129013171D01*
X134141056Y-129013175D01*
X134188104Y-129051091D01*
X134188108Y-129051093D01*
X134320064Y-129111354D01*
X134320065Y-129111354D01*
X134320069Y-129111356D01*
X134463664Y-129132003D01*
X134607260Y-129111356D01*
X134739222Y-129051092D01*
X134786278Y-129013172D01*
X135738403Y-128061045D01*
X135776325Y-128013989D01*
X135836589Y-127882027D01*
X135853380Y-127765243D01*
X135880811Y-127709451D01*
X135881714Y-127708535D01*
X136000853Y-127589413D01*
X136000907Y-127589366D01*
X136006136Y-127584136D01*
X136006139Y-127584135D01*
X136032163Y-127558109D01*
X136087558Y-127529883D01*
X136148967Y-127539607D01*
X136192932Y-127583570D01*
X136202660Y-127644978D01*
X136197361Y-127664916D01*
X136140311Y-127815349D01*
X136140308Y-127815361D01*
X136119594Y-127985955D01*
X136119594Y-127985962D01*
X136140308Y-128156556D01*
X136140309Y-128156562D01*
X136140310Y-128156567D01*
X136170277Y-128235584D01*
X136201252Y-128317259D01*
X136201252Y-128317260D01*
X136298879Y-128458697D01*
X136298883Y-128458701D01*
X136381939Y-128532282D01*
X136427520Y-128572663D01*
X136579691Y-128652528D01*
X136579692Y-128652528D01*
X136579695Y-128652530D01*
X136746562Y-128693659D01*
X136746566Y-128693659D01*
X136918418Y-128693659D01*
X136918422Y-128693659D01*
X137085289Y-128652530D01*
X137237464Y-128572663D01*
X137366104Y-128458698D01*
X137463732Y-128317259D01*
X137498486Y-128225617D01*
X137521410Y-128190158D01*
X138884120Y-126827408D01*
X138939515Y-126799183D01*
X139000924Y-126808908D01*
X139026386Y-126827407D01*
X139095050Y-126896070D01*
X139232253Y-127033273D01*
X139232258Y-127033277D01*
X139279306Y-127071193D01*
X139279310Y-127071195D01*
X139411266Y-127131456D01*
X139411267Y-127131456D01*
X139411271Y-127131458D01*
X139554866Y-127152105D01*
X139698462Y-127131458D01*
X139830424Y-127071194D01*
X139877480Y-127033274D01*
X140829605Y-126081147D01*
X140867527Y-126034091D01*
X140927791Y-125902129D01*
X140943494Y-125792911D01*
X140970927Y-125737118D01*
X141025916Y-125708103D01*
X141087457Y-125716952D01*
X141114205Y-125736095D01*
X141910755Y-126532645D01*
X141938981Y-126588043D01*
X141929255Y-126649451D01*
X141885291Y-126693415D01*
X141853938Y-126703356D01*
X141744720Y-126719060D01*
X141744719Y-126719060D01*
X141612765Y-126779321D01*
X141612761Y-126779323D01*
X141565702Y-126817245D01*
X140613577Y-127769372D01*
X140613573Y-127769377D01*
X140575657Y-127816425D01*
X140575655Y-127816430D01*
X140525366Y-127926549D01*
X140483326Y-127972356D01*
X140433857Y-127985359D01*
X140282159Y-127985359D01*
X140115291Y-128026489D01*
X139963120Y-128106354D01*
X139834483Y-128220316D01*
X139834479Y-128220320D01*
X139736852Y-128361757D01*
X139736852Y-128361758D01*
X139675910Y-128522452D01*
X139675908Y-128522461D01*
X139655194Y-128693055D01*
X139655194Y-128693062D01*
X139675908Y-128863656D01*
X139675909Y-128863662D01*
X139675910Y-128863667D01*
X139736852Y-129024359D01*
X139736852Y-129024360D01*
X139834479Y-129165797D01*
X139834483Y-129165801D01*
X139963120Y-129279763D01*
X140116537Y-129360282D01*
X140159966Y-129404774D01*
X140168950Y-129466296D01*
X140140056Y-129521348D01*
X140084322Y-129548903D01*
X140069786Y-129549959D01*
X124055392Y-129549959D01*
X123996261Y-129530746D01*
X123959716Y-129480446D01*
X123954792Y-129449359D01*
X123954792Y-89817794D01*
X123963340Y-89777213D01*
X123974484Y-89751934D01*
X124247546Y-89132537D01*
X124249685Y-89128001D01*
X124591588Y-88448013D01*
X124593965Y-88443570D01*
X124969876Y-87781763D01*
X124972459Y-87777473D01*
X125381402Y-87135564D01*
X125384241Y-87131351D01*
X125617509Y-86803152D01*
X125825140Y-86511022D01*
X125828164Y-86506986D01*
X126299953Y-85909739D01*
X126303178Y-85905863D01*
X126804580Y-85333316D01*
X126808024Y-85329578D01*
X126812128Y-85325345D01*
X127337790Y-84783151D01*
X127341397Y-84779614D01*
X127898176Y-84260707D01*
X127901968Y-84257350D01*
X127911667Y-84249189D01*
X128484273Y-83767343D01*
X128488230Y-83764180D01*
X129094630Y-83304278D01*
X129098767Y-83301304D01*
X129197508Y-83234013D01*
X129727673Y-82872712D01*
X129731902Y-82869984D01*
X130381749Y-82473772D01*
X130386128Y-82471252D01*
X131055185Y-82108476D01*
X131059659Y-82106194D01*
X131746267Y-81777755D01*
X131750868Y-81775696D01*
X132453213Y-81482461D01*
X132457899Y-81480642D01*
X133174181Y-81223363D01*
X133178991Y-81221771D01*
X133907406Y-81001094D01*
X133912250Y-80999760D01*
X134650874Y-80816269D01*
X134655789Y-80815178D01*
X135402815Y-80669321D01*
X135407782Y-80668483D01*
X136161164Y-80560661D01*
X136166219Y-80560068D01*
X136924082Y-80490544D01*
X136929160Y-80490208D01*
X137689573Y-80459157D01*
X137694660Y-80459079D01*
X138455693Y-80466585D01*
G37*
%TD.AperFunction*%
%TD*%
M02*
