%TF.GenerationSoftware,KiCad,Pcbnew,8.0.4*%
%TF.CreationDate,2024-08-07T01:10:06-04:00*%
%TF.ProjectId,heart-sao,68656172-742d-4736-916f-2e6b69636164,rev?*%
%TF.SameCoordinates,Original*%
%TF.FileFunction,Legend,Bot*%
%TF.FilePolarity,Positive*%
%FSLAX46Y46*%
G04 Gerber Fmt 4.6, Leading zero omitted, Abs format (unit mm)*
G04 Created by KiCad (PCBNEW 8.0.4) date 2024-08-07 01:10:06*
%MOMM*%
%LPD*%
G01*
G04 APERTURE LIST*
G04 Aperture macros list*
%AMRoundRect*
0 Rectangle with rounded corners*
0 $1 Rounding radius*
0 $2 $3 $4 $5 $6 $7 $8 $9 X,Y pos of 4 corners*
0 Add a 4 corners polygon primitive as box body*
4,1,4,$2,$3,$4,$5,$6,$7,$8,$9,$2,$3,0*
0 Add four circle primitives for the rounded corners*
1,1,$1+$1,$2,$3*
1,1,$1+$1,$4,$5*
1,1,$1+$1,$6,$7*
1,1,$1+$1,$8,$9*
0 Add four rect primitives between the rounded corners*
20,1,$1+$1,$2,$3,$4,$5,0*
20,1,$1+$1,$4,$5,$6,$7,0*
20,1,$1+$1,$6,$7,$8,$9,0*
20,1,$1+$1,$8,$9,$2,$3,0*%
%AMRotRect*
0 Rectangle, with rotation*
0 The origin of the aperture is its center*
0 $1 length*
0 $2 width*
0 $3 Rotation angle, in degrees counterclockwise*
0 Add horizontal line*
21,1,$1,$2,0,0,$3*%
G04 Aperture macros list end*
%ADD10C,0.120000*%
%ADD11RoundRect,0.250000X-0.707107X-0.176777X-0.176777X-0.707107X0.707107X0.176777X0.176777X0.707107X0*%
%ADD12RoundRect,0.250000X-0.689429X-0.229810X-0.229810X-0.689429X0.689429X0.229810X0.229810X0.689429X0*%
%ADD13RotRect,1.500000X1.500000X315.000000*%
%ADD14RoundRect,0.150000X0.477297X0.689429X-0.689429X-0.477297X-0.477297X-0.689429X0.689429X0.477297X0*%
G04 APERTURE END LIST*
D10*
%TO.C,D9*%
X139908419Y-124506954D02*
X142655529Y-127254064D01*
X138303287Y-126112086D02*
X139908419Y-124506954D01*
X141050397Y-128859196D02*
X138303287Y-126112086D01*
%TO.C,D2*%
X159000319Y-101172454D02*
X161747429Y-103919564D01*
X157395187Y-102777586D02*
X159000319Y-101172454D01*
X160142297Y-105524696D02*
X157395187Y-102777586D01*
%TO.C,D6*%
X162182319Y-124153454D02*
X164929429Y-126900564D01*
X160577187Y-125758586D02*
X162182319Y-124153454D01*
X163324297Y-128505696D02*
X160577187Y-125758586D01*
%TO.C,D17*%
X131423119Y-82787654D02*
X134170229Y-85534764D01*
X129817987Y-84392786D02*
X131423119Y-82787654D01*
X132565097Y-87139896D02*
X129817987Y-84392786D01*
%TO.C,C1*%
X161721828Y-111990261D02*
X162727690Y-112996123D01*
X160434894Y-113277195D02*
X161440756Y-114283057D01*
%TO.C,D20*%
X149100819Y-91272954D02*
X151847929Y-94020064D01*
X147495687Y-92878086D02*
X149100819Y-91272954D01*
X150242797Y-95625196D02*
X147495687Y-92878086D01*
%TO.C,D5*%
X167485619Y-118850154D02*
X170232729Y-121597264D01*
X165880487Y-120455286D02*
X167485619Y-118850154D01*
X168627597Y-123202396D02*
X165880487Y-120455286D01*
%TO.C,D19*%
X145565319Y-83494754D02*
X148312429Y-86241864D01*
X143960187Y-85099886D02*
X145565319Y-83494754D01*
X146707297Y-87846996D02*
X143960187Y-85099886D01*
%TO.C,SW1*%
X135976893Y-91987165D02*
X133360598Y-94603460D01*
X133360598Y-94603460D02*
X137688091Y-98930953D01*
X140304386Y-96314658D02*
X135976893Y-91987165D01*
X137688091Y-98930953D02*
X140304386Y-96314658D01*
%TO.C,D8*%
X146979519Y-124506954D02*
X149726629Y-127254064D01*
X145374387Y-126112086D02*
X146979519Y-124506954D01*
X148121497Y-128859196D02*
X145374387Y-126112086D01*
%TO.C,D13*%
X125766319Y-110364854D02*
X128513429Y-113111964D01*
X124161187Y-111969986D02*
X125766319Y-110364854D01*
X126908297Y-114717096D02*
X124161187Y-111969986D01*
%TO.C,D1*%
X149807919Y-100465354D02*
X152555029Y-103212464D01*
X148202787Y-102070486D02*
X149807919Y-100465354D01*
X150949897Y-104817596D02*
X148202787Y-102070486D01*
%TO.C,D14*%
X125766319Y-103293754D02*
X128513429Y-106040864D01*
X124161187Y-104898886D02*
X125766319Y-103293754D01*
X126908297Y-107645996D02*
X124161187Y-104898886D01*
%TO.C,D7*%
X154757719Y-124506954D02*
X157504829Y-127254064D01*
X153152587Y-126112086D02*
X154757719Y-124506954D01*
X155899697Y-128859196D02*
X153152587Y-126112086D01*
%TO.C,D3*%
X166778519Y-104707954D02*
X169525629Y-107455064D01*
X165173387Y-106313086D02*
X166778519Y-104707954D01*
X167920497Y-109060196D02*
X165173387Y-106313086D01*
%TO.C,D16*%
X126119819Y-88090954D02*
X128866929Y-90838064D01*
X124514687Y-89696086D02*
X126119819Y-88090954D01*
X127261797Y-92443196D02*
X124514687Y-89696086D01*
%TO.C,D18*%
X138140619Y-81019954D02*
X140887729Y-83767064D01*
X136535487Y-82625086D02*
X138140619Y-81019954D01*
X139282597Y-85372196D02*
X136535487Y-82625086D01*
%TO.C,D11*%
X125766319Y-124506954D02*
X128513429Y-127254064D01*
X124161187Y-126112086D02*
X125766319Y-124506954D01*
X126908297Y-128859196D02*
X124161187Y-126112086D01*
%TO.C,D10*%
X132837319Y-124506954D02*
X135584429Y-127254064D01*
X131232187Y-126112086D02*
X132837319Y-124506954D01*
X133979297Y-128859196D02*
X131232187Y-126112086D01*
%TO.C,D4*%
X169253319Y-112132654D02*
X172000429Y-114879764D01*
X167648187Y-113737786D02*
X169253319Y-112132654D01*
X170395297Y-116484896D02*
X167648187Y-113737786D01*
%TO.C,U1*%
X160616019Y-120484019D02*
X161994877Y-119105160D01*
X160616019Y-120484019D02*
X159237160Y-121862877D01*
X154343981Y-114211981D02*
X156783500Y-111772463D01*
X154343981Y-114211981D02*
X152965123Y-115590840D01*
%TO.C,D15*%
X125766319Y-95515554D02*
X128513429Y-98262664D01*
X124161187Y-97120686D02*
X125766319Y-95515554D01*
X126908297Y-99867796D02*
X124161187Y-97120686D01*
%TO.C,D12*%
X125766319Y-117435954D02*
X128513429Y-120183064D01*
X124161187Y-119041086D02*
X125766319Y-117435954D01*
X126908297Y-121788196D02*
X124161187Y-119041086D01*
%TD*%
%LPC*%
D11*
%TO.C,D9*%
X139731643Y-125935310D03*
X141711541Y-127915208D03*
%TD*%
%TO.C,D2*%
X158823543Y-102600810D03*
X160803441Y-104580708D03*
%TD*%
%TO.C,D6*%
X162005543Y-125581810D03*
X163985441Y-127561708D03*
%TD*%
%TO.C,D17*%
X131246343Y-84216010D03*
X133226241Y-86195908D03*
%TD*%
D12*
%TO.C,C1*%
X160538309Y-112093676D03*
X162624275Y-114179642D03*
%TD*%
D11*
%TO.C,D20*%
X148924043Y-92701310D03*
X150903941Y-94681208D03*
%TD*%
%TO.C,D5*%
X167308843Y-120278510D03*
X169288741Y-122258408D03*
%TD*%
%TO.C,D19*%
X145388543Y-84923110D03*
X147368441Y-86903008D03*
%TD*%
D13*
%TO.C,SW1*%
X134074776Y-92701343D03*
X139590208Y-98216775D03*
%TD*%
D11*
%TO.C,D8*%
X146802743Y-125935310D03*
X148782641Y-127915208D03*
%TD*%
%TO.C,D13*%
X125589543Y-111793210D03*
X127569441Y-113773108D03*
%TD*%
%TO.C,D1*%
X149631143Y-101893710D03*
X151611041Y-103873608D03*
%TD*%
%TO.C,D14*%
X125589543Y-104722110D03*
X127569441Y-106702008D03*
%TD*%
%TO.C,D7*%
X154580943Y-125935310D03*
X156560841Y-127915208D03*
%TD*%
%TO.C,D3*%
X166601743Y-106136310D03*
X168581641Y-108116208D03*
%TD*%
%TO.C,D16*%
X125943043Y-89519310D03*
X127922941Y-91499208D03*
%TD*%
%TO.C,D18*%
X137963843Y-82448310D03*
X139943741Y-84428208D03*
%TD*%
%TO.C,D11*%
X125589543Y-125935310D03*
X127569441Y-127915208D03*
%TD*%
%TO.C,D10*%
X132660543Y-125935310D03*
X134640441Y-127915208D03*
%TD*%
%TO.C,D4*%
X169076543Y-113561010D03*
X171056441Y-115540908D03*
%TD*%
D14*
%TO.C,U1*%
X156536012Y-112903834D03*
X157434038Y-113801859D03*
X158332064Y-114699885D03*
X159230089Y-115597911D03*
X160128115Y-116495936D03*
X161026141Y-117393962D03*
X161924166Y-118291988D03*
X158423988Y-121792166D03*
X157525962Y-120894141D03*
X156627936Y-119996115D03*
X155729911Y-119098089D03*
X154831885Y-118200064D03*
X153933859Y-117302038D03*
X153035834Y-116404012D03*
%TD*%
D11*
%TO.C,D15*%
X125589543Y-96943910D03*
X127569441Y-98923808D03*
%TD*%
%TO.C,D12*%
X125589543Y-118864310D03*
X127569441Y-120844208D03*
%TD*%
%LPD*%
M02*
