M48
; DRILL file {KiCad 8.0.4} date 2024-08-07T01:10:14-0400
; FORMAT={-:-/ absolute / inch / decimal}
; #@! TF.CreationDate,2024-08-07T01:10:14-04:00
; #@! TF.GenerationSoftware,Kicad,Pcbnew,8.0.4
; #@! TF.FileFunction,MixedPlating,1,2
FMAT,2
INCH
; #@! TA.AperFunction,Plated,PTH,ViaDrill
T1C0.0118
; #@! TA.AperFunction,Plated,PTH,ViaDrill
T2C0.0197
%
G90
G05
T1
X5.28Y-3.56
X5.32Y-3.6
X5.38Y-3.98
X5.48Y-4.38
X5.48Y-4.46
X5.54Y-4.48
X5.8Y-4.3632
X6.06Y-4.7
X6.08Y-4.54
X6.18Y-4.66
X6.2Y-4.5732
X6.42Y-4.78
T2
X4.92Y-4.6
X4.9622Y-4.2334
X4.9834Y-4.9135
X5.0113Y-3.4659
X5.0113Y-4.5516
X5.0809Y-4.7048
X5.0948Y-3.44
X5.1087Y-4.32
X5.2618Y-4.9135
X5.3871Y-4.9831
X5.3871Y-5.0388
X5.52Y-4.72
X5.5263Y-3.4242
X5.5263Y-3.4798
X5.5263Y-5.0667
X5.5618Y-4.6782
X5.582Y-3.3685
X5.6377Y-3.3685
X5.6516Y-5.0249
X5.8182Y-4.8582
X5.8325Y-3.9531
X5.93Y-5.0249
X5.9578Y-3.6608
X6.0692Y-4.1062
X6.1388Y-4.1201
X6.2084Y-4.9971
X6.22Y-4.38
X6.4032Y-4.1619
X6.445Y-4.8718
X6.5285Y-4.2872
X6.5285Y-4.9553
X6.5842Y-4.2872
X6.6677Y-4.5934
M30
