%TF.GenerationSoftware,KiCad,Pcbnew,8.0.4*%
%TF.CreationDate,2024-08-07T01:10:06-04:00*%
%TF.ProjectId,heart-sao,68656172-742d-4736-916f-2e6b69636164,rev?*%
%TF.SameCoordinates,Original*%
%TF.FileFunction,Soldermask,Bot*%
%TF.FilePolarity,Negative*%
%FSLAX46Y46*%
G04 Gerber Fmt 4.6, Leading zero omitted, Abs format (unit mm)*
G04 Created by KiCad (PCBNEW 8.0.4) date 2024-08-07 01:10:06*
%MOMM*%
%LPD*%
G01*
G04 APERTURE LIST*
G04 Aperture macros list*
%AMRoundRect*
0 Rectangle with rounded corners*
0 $1 Rounding radius*
0 $2 $3 $4 $5 $6 $7 $8 $9 X,Y pos of 4 corners*
0 Add a 4 corners polygon primitive as box body*
4,1,4,$2,$3,$4,$5,$6,$7,$8,$9,$2,$3,0*
0 Add four circle primitives for the rounded corners*
1,1,$1+$1,$2,$3*
1,1,$1+$1,$4,$5*
1,1,$1+$1,$6,$7*
1,1,$1+$1,$8,$9*
0 Add four rect primitives between the rounded corners*
20,1,$1+$1,$2,$3,$4,$5,0*
20,1,$1+$1,$4,$5,$6,$7,0*
20,1,$1+$1,$6,$7,$8,$9,0*
20,1,$1+$1,$8,$9,$2,$3,0*%
%AMRotRect*
0 Rectangle, with rotation*
0 The origin of the aperture is its center*
0 $1 length*
0 $2 width*
0 $3 Rotation angle, in degrees counterclockwise*
0 Add horizontal line*
21,1,$1,$2,0,0,$3*%
G04 Aperture macros list end*
%ADD10RoundRect,0.250000X-0.707107X-0.176777X-0.176777X-0.707107X0.707107X0.176777X0.176777X0.707107X0*%
%ADD11RoundRect,0.250000X-0.689429X-0.229810X-0.229810X-0.689429X0.689429X0.229810X0.229810X0.689429X0*%
%ADD12RotRect,1.500000X1.500000X315.000000*%
%ADD13RoundRect,0.150000X0.477297X0.689429X-0.689429X-0.477297X-0.477297X-0.689429X0.689429X0.477297X0*%
G04 APERTURE END LIST*
D10*
%TO.C,D9*%
X139731643Y-125935310D03*
X141711541Y-127915208D03*
%TD*%
%TO.C,D2*%
X158823543Y-102600810D03*
X160803441Y-104580708D03*
%TD*%
%TO.C,D6*%
X162005543Y-125581810D03*
X163985441Y-127561708D03*
%TD*%
%TO.C,D17*%
X131246343Y-84216010D03*
X133226241Y-86195908D03*
%TD*%
D11*
%TO.C,C1*%
X160538309Y-112093676D03*
X162624275Y-114179642D03*
%TD*%
D10*
%TO.C,D20*%
X148924043Y-92701310D03*
X150903941Y-94681208D03*
%TD*%
%TO.C,D5*%
X167308843Y-120278510D03*
X169288741Y-122258408D03*
%TD*%
%TO.C,D19*%
X145388543Y-84923110D03*
X147368441Y-86903008D03*
%TD*%
D12*
%TO.C,SW1*%
X134074776Y-92701343D03*
X139590208Y-98216775D03*
%TD*%
D10*
%TO.C,D8*%
X146802743Y-125935310D03*
X148782641Y-127915208D03*
%TD*%
%TO.C,D13*%
X125589543Y-111793210D03*
X127569441Y-113773108D03*
%TD*%
%TO.C,D1*%
X149631143Y-101893710D03*
X151611041Y-103873608D03*
%TD*%
%TO.C,D14*%
X125589543Y-104722110D03*
X127569441Y-106702008D03*
%TD*%
%TO.C,D7*%
X154580943Y-125935310D03*
X156560841Y-127915208D03*
%TD*%
%TO.C,D3*%
X166601743Y-106136310D03*
X168581641Y-108116208D03*
%TD*%
%TO.C,D16*%
X125943043Y-89519310D03*
X127922941Y-91499208D03*
%TD*%
%TO.C,D18*%
X137963843Y-82448310D03*
X139943741Y-84428208D03*
%TD*%
%TO.C,D11*%
X125589543Y-125935310D03*
X127569441Y-127915208D03*
%TD*%
%TO.C,D10*%
X132660543Y-125935310D03*
X134640441Y-127915208D03*
%TD*%
%TO.C,D4*%
X169076543Y-113561010D03*
X171056441Y-115540908D03*
%TD*%
D13*
%TO.C,U1*%
X156536012Y-112903834D03*
X157434038Y-113801859D03*
X158332064Y-114699885D03*
X159230089Y-115597911D03*
X160128115Y-116495936D03*
X161026141Y-117393962D03*
X161924166Y-118291988D03*
X158423988Y-121792166D03*
X157525962Y-120894141D03*
X156627936Y-119996115D03*
X155729911Y-119098089D03*
X154831885Y-118200064D03*
X153933859Y-117302038D03*
X153035834Y-116404012D03*
%TD*%
D10*
%TO.C,D15*%
X125589543Y-96943910D03*
X127569441Y-98923808D03*
%TD*%
%TO.C,D12*%
X125589543Y-118864310D03*
X127569441Y-120844208D03*
%TD*%
M02*
